{
  "asset": {
    "generator": "BabylonJS",
    "version": "2.0"
  },
  "buffers": [
    {
      "uri": "icp_data.bin",
      "byteLength": 1097376
    }
  ],
  "nodes": [
    {
      "name": "stlmesh",
      "mesh": 0,
      "rotation": [
        0,
        1,
        0,
        0
      ]
    },
    {
      "name": "default light",
      "rotation": [
        0,
        1,
        0,
        0
      ]
    }
  ],
  "meshes": [
    {
      "primitives": [
        {
          "attributes": {
            "POSITION": 0,
            "NORMAL": 1
          },
          "indices": 2,
          "material": 0
        }
      ]
    }
  ],
  "scenes": [
    {
      "nodes": [
        0,
        1
      ]
    }
  ],
  "scene": 0,
  "bufferViews": [
    {
      "buffer": 0,
      "byteLength": 470304,
      "name": "position - stlmesh",
      "byteStride": 12,
      "byteOffset": 0
    },
    {
      "buffer": 0,
      "byteLength": 470304,
      "byteOffset": 470304,
      "name": "normal - stlmesh",
      "byteStride": 12
    },
    {
      "buffer": 0,
      "byteLength": 156768,
      "byteOffset": 940608,
      "name": "Indices - stlmesh"
    }
  ],
  "accessors": [
    {
      "name": "position - stlmesh",
      "bufferView": 0,
      "componentType": 5126,
      "count": 39192,
      "type": "VEC3",
      "min": [
        0.0037066638469696045,
        0.005647540092468262,
        -112.85325622558594
      ],
      "max": [
        85.49201202392578,
        91.2956771850586,
        -0.00010058283805847168
      ],
      "byteOffset": 0
    },
    {
      "name": "normal - stlmesh",
      "bufferView": 1,
      "componentType": 5126,
      "count": 39192,
      "type": "VEC3",
      "byteOffset": 0
    },
    {
      "name": "indices - stlmesh",
      "bufferView": 2,
      "componentType": 5125,
      "count": 39192,
      "type": "SCALAR",
      "byteOffset": 0
    }
  ],
  "materials": [
    {
      "name": "stal",
      "pbrMetallicRoughness": {
        "baseColorFactor": [
          0.5,
          0.5,
          0.5,
          1
        ],
        "metallicFactor": 0,
        "roughnessFactor": 0.342328720198273
      }
    }
  ]
}