<?xml version="1.0" encoding="UTF-8" standalone="no"?>
<!--?xml version="1.0"?-->

<svg
   xmlns:dc="http://purl.org/dc/elements/1.1/"
   xmlns:cc="http://creativecommons.org/ns#"
   xmlns:rdf="http://www.w3.org/1999/02/22-rdf-syntax-ns#"
   xmlns:svg="http://www.w3.org/2000/svg"
   xmlns="http://www.w3.org/2000/svg"
   xmlns:sodipodi="http://sodipodi.sourceforge.net/DTD/sodipodi-0.dtd"
   xmlns:inkscape="http://www.inkscape.org/namespaces/inkscape"
   width="203.95818mm"
   height="71.556335mm"
   viewBox="0 0 203.95817 71.556337"
   version="1.1"
   id="svg442"
   sodipodi:docname="logon.svg"
   inkscape:version="0.92.3 (2405546, 2018-03-11)">
  <metadata
     id="metadata448">
    <rdf:RDF>
      <cc:Work
         rdf:about="">
        <dc:format>image/svg+xml</dc:format>
        <dc:type
           rdf:resource="http://purl.org/dc/dcmitype/StillImage" />
        <dc:title />
      </cc:Work>
    </rdf:RDF>
  </metadata>
  <defs
     id="defs446" />
  <sodipodi:namedview
     pagecolor="#ffffff"
     bordercolor="#666666"
     borderopacity="1"
     objecttolerance="10"
     gridtolerance="10"
     guidetolerance="10"
     inkscape:pageopacity="0"
     inkscape:pageshadow="2"
     inkscape:window-width="1366"
     inkscape:window-height="705"
     id="namedview444"
     showgrid="false"
     inkscape:zoom="1.1133041"
     inkscape:cx="235.87794"
     inkscape:cy="135.22456"
     inkscape:window-x="0"
     inkscape:window-y="30"
     inkscape:window-maximized="1"
     inkscape:current-layer="svg442"
     fit-margin-top="0.5"
     fit-margin-left="0.5"
     fit-margin-right="0.5"
     fit-margin-bottom="0.5"
     showguides="false" />
  <style
     data-made-with="vivus-instant"
     id="style440">.nNDapcnP_0{stroke-dasharray:345 347;stroke-dashoffset:346;animation:nNDapcnP_draw 342ms linear 0ms forwards;}.nNDapcnP_1{stroke-dasharray:275 277;stroke-dashoffset:276;animation:nNDapcnP_draw 273ms linear 342ms forwards;}.nNDapcnP_2{stroke-dasharray:345 347;stroke-dashoffset:346;animation:nNDapcnP_draw 342ms linear 616ms forwards;}.nNDapcnP_3{stroke-dasharray:275 277;stroke-dashoffset:276;animation:nNDapcnP_draw 273ms linear 959ms forwards;}.nNDapcnP_4{stroke-dasharray:7 9;stroke-dashoffset:8;animation:nNDapcnP_draw 7ms linear 1232ms forwards;}.nNDapcnP_5{stroke-dasharray:41 43;stroke-dashoffset:42;animation:nNDapcnP_draw 41ms linear 1240ms forwards;}.nNDapcnP_6{stroke-dasharray:5 7;stroke-dashoffset:6;animation:nNDapcnP_draw 5ms linear 1282ms forwards;}.nNDapcnP_7{stroke-dasharray:16 18;stroke-dashoffset:17;animation:nNDapcnP_draw 16ms linear 1288ms forwards;}.nNDapcnP_8{stroke-dasharray:5 7;stroke-dashoffset:6;animation:nNDapcnP_draw 5ms linear 1305ms forwards;}.nNDapcnP_9{stroke-dasharray:16 18;stroke-dashoffset:17;animation:nNDapcnP_draw 16ms linear 1311ms forwards;}.nNDapcnP_10{stroke-dasharray:5 7;stroke-dashoffset:6;animation:nNDapcnP_draw 5ms linear 1328ms forwards;}.nNDapcnP_11{stroke-dasharray:79 81;stroke-dashoffset:80;animation:nNDapcnP_draw 79ms linear 1333ms forwards;}.nNDapcnP_12{stroke-dasharray:7 9;stroke-dashoffset:8;animation:nNDapcnP_draw 7ms linear 1413ms forwards;}.nNDapcnP_13{stroke-dasharray:28 30;stroke-dashoffset:29;animation:nNDapcnP_draw 28ms linear 1421ms forwards;}.nNDapcnP_14{stroke-dasharray:7 9;stroke-dashoffset:8;animation:nNDapcnP_draw 7ms linear 1449ms forwards;}.nNDapcnP_15{stroke-dasharray:5 7;stroke-dashoffset:6;animation:nNDapcnP_draw 5ms linear 1457ms forwards;}.nNDapcnP_16{stroke-dasharray:6 8;stroke-dashoffset:7;animation:nNDapcnP_draw 6ms linear 1463ms forwards;}.nNDapcnP_17{stroke-dasharray:9 11;stroke-dashoffset:10;animation:nNDapcnP_draw 9ms linear 1470ms forwards;}.nNDapcnP_18{stroke-dasharray:40 42;stroke-dashoffset:41;animation:nNDapcnP_draw 40ms linear 1480ms forwards;}.nNDapcnP_19{stroke-dasharray:9 11;stroke-dashoffset:10;animation:nNDapcnP_draw 9ms linear 1521ms forwards;}.nNDapcnP_20{stroke-dasharray:6 8;stroke-dashoffset:7;animation:nNDapcnP_draw 6ms linear 1531ms forwards;}.nNDapcnP_21{stroke-dasharray:37 39;stroke-dashoffset:38;animation:nNDapcnP_draw 37ms linear 1538ms forwards;}.nNDapcnP_22{stroke-dasharray:4 6;stroke-dashoffset:5;animation:nNDapcnP_draw 4ms linear 1575ms forwards;}.nNDapcnP_23{stroke-dasharray:16 18;stroke-dashoffset:17;animation:nNDapcnP_draw 16ms linear 1580ms forwards;}.nNDapcnP_24{stroke-dasharray:5 7;stroke-dashoffset:6;animation:nNDapcnP_draw 5ms linear 1597ms forwards;}.nNDapcnP_25{stroke-dasharray:16 18;stroke-dashoffset:17;animation:nNDapcnP_draw 16ms linear 1603ms forwards;}.nNDapcnP_26{stroke-dasharray:4 6;stroke-dashoffset:5;animation:nNDapcnP_draw 4ms linear 1620ms forwards;}.nNDapcnP_27{stroke-dasharray:41 43;stroke-dashoffset:42;animation:nNDapcnP_draw 41ms linear 1625ms forwards;}.nNDapcnP_28{stroke-dasharray:7 9;stroke-dashoffset:8;animation:nNDapcnP_draw 7ms linear 1666ms forwards;}.nNDapcnP_29{stroke-dasharray:28 30;stroke-dashoffset:29;animation:nNDapcnP_draw 28ms linear 1674ms forwards;}.nNDapcnP_30{stroke-dasharray:26 28;stroke-dashoffset:27;animation:nNDapcnP_draw 26ms linear 1703ms forwards;}.nNDapcnP_31{stroke-dasharray:26 28;stroke-dashoffset:27;animation:nNDapcnP_draw 26ms linear 1730ms forwards;}.nNDapcnP_32{stroke-dasharray:5 7;stroke-dashoffset:6;animation:nNDapcnP_draw 5ms linear 1757ms forwards;}.nNDapcnP_33{stroke-dasharray:26 28;stroke-dashoffset:27;animation:nNDapcnP_draw 26ms linear 1763ms forwards;}.nNDapcnP_34{stroke-dasharray:5 7;stroke-dashoffset:6;animation:nNDapcnP_draw 5ms linear 1789ms forwards;}.nNDapcnP_35{stroke-dasharray:1 3;stroke-dashoffset:2;animation:nNDapcnP_draw 1ms linear 1795ms forwards;}.nNDapcnP_36{stroke-dasharray:5 7;stroke-dashoffset:6;animation:nNDapcnP_draw 5ms linear 1797ms forwards;}.nNDapcnP_37{stroke-dasharray:20 22;stroke-dashoffset:21;animation:nNDapcnP_draw 20ms linear 1803ms forwards;}.nNDapcnP_38{stroke-dasharray:5 7;stroke-dashoffset:6;animation:nNDapcnP_draw 5ms linear 1824ms forwards;}.nNDapcnP_39{stroke-dasharray:46 48;stroke-dashoffset:47;animation:nNDapcnP_draw 46ms linear 1830ms forwards;}.nNDapcnP_40{stroke-dasharray:2 4;stroke-dashoffset:3;animation:nNDapcnP_draw 2ms linear 1877ms forwards;}.nNDapcnP_41{stroke-dasharray:4 6;stroke-dashoffset:5;animation:nNDapcnP_draw 4ms linear 1880ms forwards;}.nNDapcnP_42{stroke-dasharray:16 18;stroke-dashoffset:17;animation:nNDapcnP_draw 16ms linear 1885ms forwards;}.nNDapcnP_43{stroke-dasharray:5 7;stroke-dashoffset:6;animation:nNDapcnP_draw 5ms linear 1901ms forwards;}.nNDapcnP_44{stroke-dasharray:16 18;stroke-dashoffset:17;animation:nNDapcnP_draw 16ms linear 1907ms forwards;}.nNDapcnP_45{stroke-dasharray:4 6;stroke-dashoffset:5;animation:nNDapcnP_draw 4ms linear 1924ms forwards;}.nNDapcnP_46{stroke-dasharray:2 4;stroke-dashoffset:3;animation:nNDapcnP_draw 2ms linear 1929ms forwards;}.nNDapcnP_47{stroke-dasharray:49 51;stroke-dashoffset:50;animation:nNDapcnP_draw 49ms linear 1932ms forwards;}.nNDapcnP_48{stroke-dasharray:5 7;stroke-dashoffset:6;animation:nNDapcnP_draw 5ms linear 1982ms forwards;}.nNDapcnP_49{stroke-dasharray:1 3;stroke-dashoffset:2;animation:nNDapcnP_draw 1ms linear 1988ms forwards;}.nNDapcnP_50{stroke-dasharray:5 7;stroke-dashoffset:6;animation:nNDapcnP_draw 5ms linear 1990ms forwards;}.nNDapcnP_51{stroke-dasharray:49 51;stroke-dashoffset:50;animation:nNDapcnP_draw 49ms linear 1996ms forwards;}.nNDapcnP_52{stroke-dasharray:2 4;stroke-dashoffset:3;animation:nNDapcnP_draw 2ms linear 2045ms forwards;}.nNDapcnP_53{stroke-dasharray:4 6;stroke-dashoffset:5;animation:nNDapcnP_draw 4ms linear 2048ms forwards;}.nNDapcnP_54{stroke-dasharray:16 18;stroke-dashoffset:17;animation:nNDapcnP_draw 16ms linear 2053ms forwards;}.nNDapcnP_55{stroke-dasharray:5 7;stroke-dashoffset:6;animation:nNDapcnP_draw 5ms linear 2070ms forwards;}.nNDapcnP_56{stroke-dasharray:16 18;stroke-dashoffset:17;animation:nNDapcnP_draw 16ms linear 2076ms forwards;}.nNDapcnP_57{stroke-dasharray:4 6;stroke-dashoffset:5;animation:nNDapcnP_draw 4ms linear 2093ms forwards;}.nNDapcnP_58{stroke-dasharray:2 4;stroke-dashoffset:3;animation:nNDapcnP_draw 2ms linear 2098ms forwards;}.nNDapcnP_59{stroke-dasharray:52 54;stroke-dashoffset:53;animation:nNDapcnP_draw 52ms linear 2101ms forwards;}.nNDapcnP_60{stroke-dasharray:1 3;stroke-dashoffset:2;animation:nNDapcnP_draw 1ms linear 2153ms forwards;}.nNDapcnP_61{stroke-dasharray:8 10;stroke-dashoffset:9;animation:nNDapcnP_draw 8ms linear 2155ms forwards;}.nNDapcnP_62{stroke-dasharray:7 9;stroke-dashoffset:8;animation:nNDapcnP_draw 7ms linear 2164ms forwards;}.nNDapcnP_63{stroke-dasharray:6 8;stroke-dashoffset:7;animation:nNDapcnP_draw 6ms linear 2172ms forwards;}.nNDapcnP_64{stroke-dasharray:2 4;stroke-dashoffset:3;animation:nNDapcnP_draw 2ms linear 2179ms forwards;}.nNDapcnP_65{stroke-dasharray:168 170;stroke-dashoffset:169;animation:nNDapcnP_draw 167ms linear 2182ms forwards;}.nNDapcnP_66{stroke-dasharray:7 9;stroke-dashoffset:8;animation:nNDapcnP_draw 7ms linear 2349ms forwards;}.nNDapcnP_67{stroke-dasharray:5 7;stroke-dashoffset:6;animation:nNDapcnP_draw 5ms linear 2357ms forwards;}.nNDapcnP_68{stroke-dasharray:7 9;stroke-dashoffset:8;animation:nNDapcnP_draw 7ms linear 2363ms forwards;}.nNDapcnP_69{stroke-dasharray:168 170;stroke-dashoffset:169;animation:nNDapcnP_draw 167ms linear 2371ms forwards;}.nNDapcnP_70{stroke-dasharray:2 4;stroke-dashoffset:3;animation:nNDapcnP_draw 2ms linear 2539ms forwards;}.nNDapcnP_71{stroke-dasharray:6 8;stroke-dashoffset:7;animation:nNDapcnP_draw 6ms linear 2542ms forwards;}.nNDapcnP_72{stroke-dasharray:7 9;stroke-dashoffset:8;animation:nNDapcnP_draw 7ms linear 2549ms forwards;}.nNDapcnP_73{stroke-dasharray:8 10;stroke-dashoffset:9;animation:nNDapcnP_draw 8ms linear 2556ms forwards;}.nNDapcnP_74{stroke-dasharray:1 3;stroke-dashoffset:2;animation:nNDapcnP_draw 1ms linear 2565ms forwards;}.nNDapcnP_75{stroke-dasharray:2 4;stroke-dashoffset:3;animation:nNDapcnP_draw 2ms linear 2567ms forwards;}.nNDapcnP_76{stroke-dasharray:2 4;stroke-dashoffset:3;animation:nNDapcnP_draw 2ms linear 2570ms forwards;}.nNDapcnP_77{stroke-dasharray:2 4;stroke-dashoffset:3;animation:nNDapcnP_draw 2ms linear 2573ms forwards;}.nNDapcnP_78{stroke-dasharray:16 18;stroke-dashoffset:17;animation:nNDapcnP_draw 16ms linear 2576ms forwards;}.nNDapcnP_79{stroke-dasharray:5 7;stroke-dashoffset:6;animation:nNDapcnP_draw 5ms linear 2593ms forwards;}.nNDapcnP_80{stroke-dasharray:16 18;stroke-dashoffset:17;animation:nNDapcnP_draw 16ms linear 2599ms forwards;}.nNDapcnP_81{stroke-dasharray:2 4;stroke-dashoffset:3;animation:nNDapcnP_draw 2ms linear 2616ms forwards;}.nNDapcnP_82{stroke-dasharray:2 4;stroke-dashoffset:3;animation:nNDapcnP_draw 2ms linear 2619ms forwards;}.nNDapcnP_83{stroke-dasharray:30 32;stroke-dashoffset:31;animation:nNDapcnP_draw 30ms linear 2622ms forwards;}.nNDapcnP_84{stroke-dasharray:4 6;stroke-dashoffset:5;animation:nNDapcnP_draw 4ms linear 2653ms forwards;}.nNDapcnP_85{stroke-dasharray:25 27;stroke-dashoffset:26;animation:nNDapcnP_draw 25ms linear 2658ms forwards;}.nNDapcnP_86{stroke-dasharray:24 26;stroke-dashoffset:25;animation:nNDapcnP_draw 24ms linear 2683ms forwards;}.nNDapcnP_87{stroke-dasharray:24 26;stroke-dashoffset:25;animation:nNDapcnP_draw 24ms linear 2708ms forwards;}.nNDapcnP_88{stroke-dasharray:25 27;stroke-dashoffset:26;animation:nNDapcnP_draw 25ms linear 2733ms forwards;}.nNDapcnP_89{stroke-dasharray:4 6;stroke-dashoffset:5;animation:nNDapcnP_draw 4ms linear 2759ms forwards;}.nNDapcnP_90{stroke-dasharray:30 32;stroke-dashoffset:31;animation:nNDapcnP_draw 30ms linear 2764ms forwards;}.nNDapcnP_91{stroke-dasharray:2 4;stroke-dashoffset:3;animation:nNDapcnP_draw 2ms linear 2794ms forwards;}.nNDapcnP_92{stroke-dasharray:2 4;stroke-dashoffset:3;animation:nNDapcnP_draw 2ms linear 2797ms forwards;}.nNDapcnP_93{stroke-dasharray:16 18;stroke-dashoffset:17;animation:nNDapcnP_draw 16ms linear 2800ms forwards;}.nNDapcnP_94{stroke-dasharray:5 7;stroke-dashoffset:6;animation:nNDapcnP_draw 5ms linear 2817ms forwards;}.nNDapcnP_95{stroke-dasharray:16 18;stroke-dashoffset:17;animation:nNDapcnP_draw 16ms linear 2823ms forwards;}.nNDapcnP_96{stroke-dasharray:2 4;stroke-dashoffset:3;animation:nNDapcnP_draw 2ms linear 2840ms forwards;}.nNDapcnP_97{stroke-dasharray:2 4;stroke-dashoffset:3;animation:nNDapcnP_draw 2ms linear 2843ms forwards;}.nNDapcnP_98{stroke-dasharray:2 4;stroke-dashoffset:3;animation:nNDapcnP_draw 2ms linear 2846ms forwards;}.nNDapcnP_99{stroke-dasharray:16 18;stroke-dashoffset:17;animation:nNDapcnP_draw 16ms linear 2849ms forwards;}.nNDapcnP_100{stroke-dasharray:50 52;stroke-dashoffset:51;animation:nNDapcnP_draw 50ms linear 2866ms forwards;}.nNDapcnP_101{stroke-dasharray:16 18;stroke-dashoffset:17;animation:nNDapcnP_draw 16ms linear 2916ms forwards;}.nNDapcnP_102{stroke-dasharray:3 5;stroke-dashoffset:4;animation:nNDapcnP_draw 3ms linear 2933ms forwards;}.nNDapcnP_103{stroke-dasharray:2 4;stroke-dashoffset:3;animation:nNDapcnP_draw 2ms linear 2937ms forwards;}.nNDapcnP_104{stroke-dasharray:19 21;stroke-dashoffset:20;animation:nNDapcnP_draw 19ms linear 2940ms forwards;}.nNDapcnP_105{stroke-dasharray:8 10;stroke-dashoffset:9;animation:nNDapcnP_draw 8ms linear 2960ms forwards;}.nNDapcnP_106{stroke-dasharray:43 45;stroke-dashoffset:44;animation:nNDapcnP_draw 43ms linear 2969ms forwards;}.nNDapcnP_107{stroke-dasharray:8 10;stroke-dashoffset:9;animation:nNDapcnP_draw 8ms linear 3012ms forwards;}.nNDapcnP_108{stroke-dasharray:19 21;stroke-dashoffset:20;animation:nNDapcnP_draw 19ms linear 3021ms forwards;}.nNDapcnP_109{stroke-dasharray:2 4;stroke-dashoffset:3;animation:nNDapcnP_draw 2ms linear 3041ms forwards;}.nNDapcnP_110{stroke-dasharray:3 5;stroke-dashoffset:4;animation:nNDapcnP_draw 3ms linear 3044ms forwards;}.nNDapcnP_111{stroke-dasharray:16 18;stroke-dashoffset:17;animation:nNDapcnP_draw 16ms linear 3048ms forwards;}.nNDapcnP_112{stroke-dasharray:50 52;stroke-dashoffset:51;animation:nNDapcnP_draw 50ms linear 3065ms forwards;}.nNDapcnP_113{stroke-dasharray:16 18;stroke-dashoffset:17;animation:nNDapcnP_draw 16ms linear 3115ms forwards;}.nNDapcnP_114{stroke-dasharray:5 7;stroke-dashoffset:6;animation:nNDapcnP_draw 5ms linear 3132ms forwards;}.nNDapcnP_115{stroke-dasharray:2 4;stroke-dashoffset:3;animation:nNDapcnP_draw 2ms linear 3138ms forwards;}.nNDapcnP_116{stroke-dasharray:82 84;stroke-dashoffset:83;animation:nNDapcnP_draw 82ms linear 3141ms forwards;}.nNDapcnP_117{stroke-dasharray:1 3;stroke-dashoffset:2;animation:nNDapcnP_draw 1ms linear 3223ms forwards;}.nNDapcnP_118{stroke-dasharray:9 11;stroke-dashoffset:10;animation:nNDapcnP_draw 9ms linear 3225ms forwards;}.nNDapcnP_119{stroke-dasharray:3 5;stroke-dashoffset:4;animation:nNDapcnP_draw 3ms linear 3235ms forwards;}.nNDapcnP_120{stroke-dasharray:48 50;stroke-dashoffset:49;animation:nNDapcnP_draw 48ms linear 3239ms forwards;}.nNDapcnP_121{stroke-dasharray:15 17;stroke-dashoffset:16;animation:nNDapcnP_draw 15ms linear 3288ms forwards;}.nNDapcnP_122{stroke-dasharray:4 6;stroke-dashoffset:5;animation:nNDapcnP_draw 4ms linear 3304ms forwards;}.nNDapcnP_123{stroke-dasharray:34 36;stroke-dashoffset:35;animation:nNDapcnP_draw 34ms linear 3309ms forwards;}.nNDapcnP_124{stroke-dasharray:8 10;stroke-dashoffset:9;animation:nNDapcnP_draw 8ms linear 3343ms forwards;}.nNDapcnP_125{stroke-dasharray:21 23;stroke-dashoffset:22;animation:nNDapcnP_draw 21ms linear 3352ms forwards;}.nNDapcnP_126{stroke-dasharray:8 10;stroke-dashoffset:9;animation:nNDapcnP_draw 8ms linear 3374ms forwards;}.nNDapcnP_127{stroke-dasharray:24 26;stroke-dashoffset:25;animation:nNDapcnP_draw 24ms linear 3383ms forwards;}.nNDapcnP_128{stroke-dasharray:8 10;stroke-dashoffset:9;animation:nNDapcnP_draw 8ms linear 3408ms forwards;}.nNDapcnP_129{stroke-dasharray:8 10;stroke-dashoffset:9;animation:nNDapcnP_draw 8ms linear 3417ms forwards;}.nNDapcnP_130{stroke-dasharray:12 14;stroke-dashoffset:13;animation:nNDapcnP_draw 12ms linear 3426ms forwards;}.nNDapcnP_131{stroke-dasharray:103 105;stroke-dashoffset:104;animation:nNDapcnP_draw 103ms linear 3439ms forwards;}.nNDapcnP_132{stroke-dasharray:2 4;stroke-dashoffset:3;animation:nNDapcnP_draw 2ms linear 3542ms forwards;}.nNDapcnP_133{stroke-dasharray:4 6;stroke-dashoffset:5;animation:nNDapcnP_draw 4ms linear 3545ms forwards;}.nNDapcnP_134{stroke-dasharray:16 18;stroke-dashoffset:17;animation:nNDapcnP_draw 16ms linear 3550ms forwards;}.nNDapcnP_135{stroke-dasharray:39 41;stroke-dashoffset:40;animation:nNDapcnP_draw 39ms linear 3566ms forwards;}.nNDapcnP_136{stroke-dasharray:16 18;stroke-dashoffset:17;animation:nNDapcnP_draw 16ms linear 3606ms forwards;}.nNDapcnP_137{stroke-dasharray:74 76;stroke-dashoffset:75;animation:nNDapcnP_draw 74ms linear 3623ms forwards;}.nNDapcnP_138{stroke-dasharray:16 18;stroke-dashoffset:17;animation:nNDapcnP_draw 16ms linear 3697ms forwards;}.nNDapcnP_139{stroke-dasharray:39 41;stroke-dashoffset:40;animation:nNDapcnP_draw 39ms linear 3714ms forwards;}.nNDapcnP_140{stroke-dasharray:16 18;stroke-dashoffset:17;animation:nNDapcnP_draw 16ms linear 3754ms forwards;}.nNDapcnP_141{stroke-dasharray:74 76;stroke-dashoffset:75;animation:nNDapcnP_draw 74ms linear 3771ms forwards;}.nNDapcnP_142{stroke-dasharray:16 18;stroke-dashoffset:17;animation:nNDapcnP_draw 16ms linear 3845ms forwards;}.nNDapcnP_143{stroke-dasharray:5 7;stroke-dashoffset:6;animation:nNDapcnP_draw 5ms linear 3862ms forwards;}.nNDapcnP_144{stroke-dasharray:16 18;stroke-dashoffset:17;animation:nNDapcnP_draw 16ms linear 3868ms forwards;}.nNDapcnP_145{stroke-dasharray:5 7;stroke-dashoffset:6;animation:nNDapcnP_draw 5ms linear 3885ms forwards;}.nNDapcnP_146{stroke-dasharray:2 4;stroke-dashoffset:3;animation:nNDapcnP_draw 2ms linear 3890ms forwards;}.nNDapcnP_147{stroke-dasharray:11 13;stroke-dashoffset:12;animation:nNDapcnP_draw 11ms linear 3893ms forwards;}.nNDapcnP_148{stroke-dasharray:2 4;stroke-dashoffset:3;animation:nNDapcnP_draw 2ms linear 3905ms forwards;}.nNDapcnP_149{stroke-dasharray:27 29;stroke-dashoffset:28;animation:nNDapcnP_draw 27ms linear 3908ms forwards;}.nNDapcnP_150{stroke-dasharray:5 7;stroke-dashoffset:6;animation:nNDapcnP_draw 5ms linear 3936ms forwards;}.nNDapcnP_151{stroke-dasharray:5 7;stroke-dashoffset:6;animation:nNDapcnP_draw 5ms linear 3942ms forwards;}.nNDapcnP_152{stroke-dasharray:5 7;stroke-dashoffset:6;animation:nNDapcnP_draw 5ms linear 3948ms forwards;}.nNDapcnP_153{stroke-dasharray:27 29;stroke-dashoffset:28;animation:nNDapcnP_draw 27ms linear 3954ms forwards;}.nNDapcnP_154{stroke-dasharray:2 4;stroke-dashoffset:3;animation:nNDapcnP_draw 2ms linear 3982ms forwards;}.nNDapcnP_155{stroke-dasharray:3 5;stroke-dashoffset:4;animation:nNDapcnP_draw 3ms linear 3985ms forwards;}.nNDapcnP_156{stroke-dasharray:5 7;stroke-dashoffset:6;animation:nNDapcnP_draw 5ms linear 3989ms forwards;}.nNDapcnP_157{stroke-dasharray:20 22;stroke-dashoffset:21;animation:nNDapcnP_draw 20ms linear 3995ms forwards;}.nNDapcnP_158{stroke-dasharray:5 7;stroke-dashoffset:6;animation:nNDapcnP_draw 5ms linear 4015ms forwards;}.nNDapcnP_159{stroke-dasharray:3 5;stroke-dashoffset:4;animation:nNDapcnP_draw 3ms linear 4021ms forwards;}.nNDapcnP_160{stroke-dasharray:2 4;stroke-dashoffset:3;animation:nNDapcnP_draw 2ms linear 4025ms forwards;}.nNDapcnP_161{stroke-dasharray:27 29;stroke-dashoffset:28;animation:nNDapcnP_draw 27ms linear 4028ms forwards;}.nNDapcnP_162{stroke-dasharray:5 7;stroke-dashoffset:6;animation:nNDapcnP_draw 5ms linear 4056ms forwards;}.nNDapcnP_163{stroke-dasharray:5 7;stroke-dashoffset:6;animation:nNDapcnP_draw 5ms linear 4062ms forwards;}.nNDapcnP_164{stroke-dasharray:5 7;stroke-dashoffset:6;animation:nNDapcnP_draw 5ms linear 4068ms forwards;}.nNDapcnP_165{stroke-dasharray:27 29;stroke-dashoffset:28;animation:nNDapcnP_draw 27ms linear 4074ms forwards;}.nNDapcnP_166{stroke-dasharray:2 4;stroke-dashoffset:3;animation:nNDapcnP_draw 2ms linear 4102ms forwards;}.nNDapcnP_167{stroke-dasharray:11 13;stroke-dashoffset:12;animation:nNDapcnP_draw 11ms linear 4105ms forwards;}.nNDapcnP_168{stroke-dasharray:2 4;stroke-dashoffset:3;animation:nNDapcnP_draw 2ms linear 4116ms forwards;}.nNDapcnP_169{stroke-dasharray:5 7;stroke-dashoffset:6;animation:nNDapcnP_draw 5ms linear 4119ms forwards;}.nNDapcnP_170{stroke-dasharray:16 18;stroke-dashoffset:17;animation:nNDapcnP_draw 16ms linear 4125ms forwards;}.nNDapcnP_171{stroke-dasharray:5 7;stroke-dashoffset:6;animation:nNDapcnP_draw 5ms linear 4142ms forwards;}.nNDapcnP_172{stroke-dasharray:16 18;stroke-dashoffset:17;animation:nNDapcnP_draw 16ms linear 4148ms forwards;}.nNDapcnP_173{stroke-dasharray:5 7;stroke-dashoffset:6;animation:nNDapcnP_draw 5ms linear 4165ms forwards;}.nNDapcnP_174{stroke-dasharray:2 4;stroke-dashoffset:3;animation:nNDapcnP_draw 2ms linear 4171ms forwards;}.nNDapcnP_175{stroke-dasharray:16 18;stroke-dashoffset:17;animation:nNDapcnP_draw 16ms linear 4174ms forwards;}.nNDapcnP_176{stroke-dasharray:5 7;stroke-dashoffset:6;animation:nNDapcnP_draw 5ms linear 4191ms forwards;}.nNDapcnP_177{stroke-dasharray:20 22;stroke-dashoffset:21;animation:nNDapcnP_draw 20ms linear 4197ms forwards;}.nNDapcnP_178{stroke-dasharray:5 7;stroke-dashoffset:6;animation:nNDapcnP_draw 5ms linear 4218ms forwards;}.nNDapcnP_179{stroke-dasharray:16 18;stroke-dashoffset:17;animation:nNDapcnP_draw 16ms linear 4223ms forwards;}.nNDapcnP_180{stroke-dasharray:2 4;stroke-dashoffset:3;animation:nNDapcnP_draw 2ms linear 4240ms forwards;}.nNDapcnP_181{stroke-dasharray:5 7;stroke-dashoffset:6;animation:nNDapcnP_draw 5ms linear 4243ms forwards;}.nNDapcnP_182{stroke-dasharray:11 13;stroke-dashoffset:12;animation:nNDapcnP_draw 11ms linear 4249ms forwards;}.nNDapcnP_183{stroke-dasharray:7 9;stroke-dashoffset:8;animation:nNDapcnP_draw 7ms linear 4261ms forwards;}.nNDapcnP_184{stroke-dasharray:10 12;stroke-dashoffset:11;animation:nNDapcnP_draw 10ms linear 4269ms forwards;}.nNDapcnP_185{stroke-dasharray:94 96;stroke-dashoffset:95;animation:nNDapcnP_draw 94ms linear 4280ms forwards;}.nNDapcnP_186{stroke-dasharray:5 7;stroke-dashoffset:6;animation:nNDapcnP_draw 5ms linear 4374ms forwards;}.nNDapcnP_187{stroke-dasharray:13 15;stroke-dashoffset:14;animation:nNDapcnP_draw 13ms linear 4380ms forwards;}.nNDapcnP_188{stroke-dasharray:6 8;stroke-dashoffset:7;animation:nNDapcnP_draw 6ms linear 4394ms forwards;}.nNDapcnP_189{stroke-dasharray:14 16;stroke-dashoffset:15;animation:nNDapcnP_draw 14ms linear 4401ms forwards;}.nNDapcnP_190{stroke-dasharray:4 6;stroke-dashoffset:5;animation:nNDapcnP_draw 4ms linear 4416ms forwards;}.nNDapcnP_191{stroke-dasharray:38 40;stroke-dashoffset:39;animation:nNDapcnP_draw 38ms linear 4421ms forwards;}.nNDapcnP_192{stroke-dasharray:11 13;stroke-dashoffset:12;animation:nNDapcnP_draw 11ms linear 4459ms forwards;}.nNDapcnP_193{stroke-dasharray:5 7;stroke-dashoffset:6;animation:nNDapcnP_draw 5ms linear 4471ms forwards;}.nNDapcnP_194{stroke-dasharray:11 13;stroke-dashoffset:12;animation:nNDapcnP_draw 11ms linear 4477ms forwards;}.nNDapcnP_195{stroke-dasharray:33 35;stroke-dashoffset:34;animation:nNDapcnP_draw 33ms linear 4489ms forwards;}.nNDapcnP_196{stroke-dasharray:5 7;stroke-dashoffset:6;animation:nNDapcnP_draw 5ms linear 4523ms forwards;}.nNDapcnP_197{stroke-dasharray:33 35;stroke-dashoffset:34;animation:nNDapcnP_draw 33ms linear 4529ms forwards;}.nNDapcnP_198{stroke-dasharray:11 13;stroke-dashoffset:12;animation:nNDapcnP_draw 11ms linear 4562ms forwards;}.nNDapcnP_199{stroke-dasharray:5 7;stroke-dashoffset:6;animation:nNDapcnP_draw 5ms linear 4574ms forwards;}.nNDapcnP_200{stroke-dasharray:11 13;stroke-dashoffset:12;animation:nNDapcnP_draw 11ms linear 4580ms forwards;}.nNDapcnP_201{stroke-dasharray:38 40;stroke-dashoffset:39;animation:nNDapcnP_draw 38ms linear 4592ms forwards;}.nNDapcnP_202{stroke-dasharray:4 6;stroke-dashoffset:5;animation:nNDapcnP_draw 4ms linear 4631ms forwards;}.nNDapcnP_203{stroke-dasharray:14 16;stroke-dashoffset:15;animation:nNDapcnP_draw 14ms linear 4636ms forwards;}.nNDapcnP_204{stroke-dasharray:6 8;stroke-dashoffset:7;animation:nNDapcnP_draw 6ms linear 4651ms forwards;}.nNDapcnP_205{stroke-dasharray:13 15;stroke-dashoffset:14;animation:nNDapcnP_draw 13ms linear 4658ms forwards;}.nNDapcnP_206{stroke-dasharray:5 7;stroke-dashoffset:6;animation:nNDapcnP_draw 5ms linear 4671ms forwards;}.nNDapcnP_207{stroke-dasharray:94 96;stroke-dashoffset:95;animation:nNDapcnP_draw 94ms linear 4677ms forwards;}.nNDapcnP_208{stroke-dasharray:10 12;stroke-dashoffset:11;animation:nNDapcnP_draw 10ms linear 4772ms forwards;}.nNDapcnP_209{stroke-dasharray:7 9;stroke-dashoffset:8;animation:nNDapcnP_draw 7ms linear 4782ms forwards;}.nNDapcnP_210{stroke-dasharray:11 13;stroke-dashoffset:12;animation:nNDapcnP_draw 11ms linear 4790ms forwards;}.nNDapcnP_211{stroke-dasharray:96 98;stroke-dashoffset:97;animation:nNDapcnP_draw 96ms linear 4802ms forwards;}.nNDapcnP_212{stroke-dasharray:4 6;stroke-dashoffset:5;animation:nNDapcnP_draw 4ms linear 4898ms forwards;}.nNDapcnP_213{stroke-dasharray:96 98;stroke-dashoffset:97;animation:nNDapcnP_draw 96ms linear 4903ms forwards;}@keyframes nNDapcnP_draw{100%{stroke-dashoffset:0;}}@keyframes nNDapcnP_fade{0%{stroke-opacity:1;}95.65217391304348%{stroke-opacity:1;}100%{stroke-opacity:0;}}</style>
  <g
     style="font-style:normal;font-variant:normal;font-weight:normal;font-stretch:normal;font-size:10.58333302px;line-height:1.25;font-family:'Geoma Thin Demo';-inkscape-font-specification:'Geoma Thin Demo';letter-spacing:0px;word-spacing:0px;fill:#000000;fill-opacity:1;stroke:none;stroke-width:0.26458332"
     id="text232" />
  <g
     aria-label="projektowanie 
części i maszyn"
     style="font-style:normal;font-variant:normal;font-weight:normal;font-stretch:normal;font-size:11.28888893px;line-height:1;font-family:'Coco Gothic';-inkscape-font-specification:'Coco Gothic';text-align:center;letter-spacing:0px;word-spacing:0px;text-anchor:middle;fill:#4a4a4a;fill-opacity:1;stroke:none;stroke-width:0.26458332"
     id="text236">
    <path
       d="M 11.136218,51.170635 V 39.540257 q 0,-0.458611 0.4953,-0.458611 h 0.476955 q 0.4953,0 0.531989,0.458611 l 0.07338,0.807156 q 0.421922,-0.605367 1.137355,-1.027289 0.715434,-0.421923 1.595967,-0.421923 0.880533,0 1.651,0.366889 0.770467,0.366889 1.339144,1.008945 0.568678,0.623711 0.898878,1.4859 0.3302,0.843844 0.3302,1.8161 0,0.972255 -0.3302,1.834444 -0.3302,0.843845 -0.898878,1.4859 -0.568677,0.623711 -1.339144,0.9906 -0.770467,0.348545 -1.651,0.348545 -0.935567,0 -1.614311,-0.366889 -0.678745,-0.385234 -1.100667,-1.027289 v 4.329289 q 0,0.458611 -0.531989,0.458611 h -0.531989 q -0.238477,0 -0.385233,-0.128411 -0.146755,-0.128411 -0.146755,-0.3302 z m 1.577622,-7.557911 q 0,0.642055 0.201789,1.210733 0.220133,0.568678 0.568677,0.9906 0.366889,0.421922 0.843845,0.678744 0.4953,0.238478 1.045633,0.238478 0.550334,0 1.027289,-0.238478 0.4953,-0.256822 0.843845,-0.678744 0.366888,-0.421922 0.568677,-0.9906 0.201789,-0.568678 0.201789,-1.210733 0,-0.642056 -0.201789,-1.210734 -0.201789,-0.587022 -0.568677,-1.008944 -0.348545,-0.440267 -0.843845,-0.678745 -0.476955,-0.256822 -1.027289,-0.256822 -0.550333,0 -1.045633,0.256822 -0.476956,0.238478 -0.843845,0.678745 -0.348544,0.421922 -0.568677,0.9906 -0.201789,0.550333 -0.201789,1.192389 z"
       style="font-style:normal;font-variant:normal;font-weight:normal;font-stretch:normal;font-size:18.34444427px;line-height:1;font-family:'Coco Gothic';-inkscape-font-specification:'Coco Gothic';text-align:center;text-anchor:middle;fill:#4a4a4a;fill-opacity:1;stroke-width:0.26458332"
       id="path875" />
    <path
       d="m 23.478303,39.485224 0.09172,0.678744 q 0.238478,-0.421922 0.733778,-0.8255 0.4953,-0.403578 1.339144,-0.403578 0.311855,0 0.605367,0.09172 0.311855,0.09172 0.550333,0.220133 0.256822,0.110067 0.403578,0.238478 0.1651,0.128411 0.1651,0.220133 0,0.03669 -0.03669,0.146756 l -0.458611,0.862188 q -0.110067,0.183445 -0.238478,0.183445 -0.09172,0 -0.146756,-0.03669 -0.03669,-0.03669 -0.07338,-0.05503 -0.183445,-0.110067 -0.458612,-0.183445 -0.275166,-0.09172 -0.531988,-0.110066 -0.403578,0 -0.752123,0.220133 -0.348544,0.220133 -0.587022,0.568678 -0.238478,0.3302 -0.385233,0.770466 -0.128411,0.421923 -0.128411,0.843845 v 4.769555 q 0,0.403578 -0.403578,0.403578 h -0.752122 q -0.421922,0 -0.421922,-0.403578 v -8.199966 q 0,-0.183445 0.110066,-0.293511 0.128411,-0.110067 0.293511,-0.110067 h 0.6604 q 0.201789,0 0.293511,0.128411 0.110067,0.110067 0.128412,0.275167 z"
       style="font-style:normal;font-variant:normal;font-weight:normal;font-stretch:normal;font-size:18.34444427px;line-height:1;font-family:'Coco Gothic';-inkscape-font-specification:'Coco Gothic';text-align:center;text-anchor:middle;fill:#4a4a4a;fill-opacity:1;stroke-width:0.26458332"
       id="path877" />
    <path
       d="m 27.727048,43.612724 q 0,-0.972256 0.366889,-1.834445 0.366889,-0.862189 0.9906,-1.504244 0.642056,-0.642056 1.504245,-1.008945 0.862188,-0.366889 1.834444,-0.366889 0.972256,0 1.834444,0.366889 0.862189,0.366889 1.504245,1.008945 0.642055,0.642055 1.008944,1.504244 0.366889,0.862189 0.366889,1.834445 0,0.972255 -0.366889,1.834444 -0.366889,0.862189 -1.008944,1.504244 -0.642056,0.623712 -1.504245,0.9906 -0.862188,0.366889 -1.834444,0.366889 -0.972256,0 -1.834444,-0.366889 -0.862189,-0.366888 -1.504245,-0.9906 -0.623711,-0.642055 -0.9906,-1.504244 -0.366889,-0.862189 -0.366889,-1.834444 z m 1.4859,0 q 0,0.6604 0.256822,1.247422 0.256823,0.587022 0.678745,1.027289 0.440267,0.440266 1.027289,0.697089 0.587022,0.256822 1.247422,0.256822 0.6604,0 1.247422,-0.256822 0.587022,-0.256823 1.027289,-0.697089 0.440267,-0.440267 0.697089,-1.027289 0.256822,-0.587022 0.256822,-1.247422 0,-0.6604 -0.256822,-1.247423 -0.256822,-0.587022 -0.697089,-1.027288 -0.440267,-0.458612 -1.027289,-0.715434 -0.587022,-0.256822 -1.247422,-0.256822 -0.6604,0 -1.247422,0.256822 -0.587022,0.256822 -1.027289,0.715434 -0.421922,0.440266 -0.678745,1.027288 -0.256822,0.587023 -0.256822,1.247423 z"
       style="font-style:normal;font-variant:normal;font-weight:normal;font-stretch:normal;font-size:18.34444427px;line-height:1;font-family:'Coco Gothic';-inkscape-font-specification:'Coco Gothic';text-align:center;text-anchor:middle;fill:#4a4a4a;fill-opacity:1;stroke-width:0.26458332"
       id="path879" />
    <path
       d="m 38.263639,51.757657 q -0.458611,0 -0.458611,-0.458611 v -0.587022 q 0,-0.476956 0.458611,-0.476956 h 0.05503 q 0.531989,-0.03669 0.880533,-0.4953 0.366889,-0.440267 0.366889,-0.972256 v -9.227255 q 0,-0.238478 0.128411,-0.348544 0.146756,-0.110067 0.366889,-0.110067 h 0.623711 q 0.476956,0 0.476956,0.458611 v 9.227255 q 0,0.605367 -0.238478,1.137356 -0.220133,0.550333 -0.623711,0.953911 -0.403578,0.403578 -0.935567,0.642056 -0.513644,0.238477 -1.100666,0.256822 z M 39.21755,36.550113 q 0,-0.476956 0.3302,-0.807156 0.348544,-0.348544 0.8255,-0.348544 0.4953,0 0.8255,0.348544 0.3302,0.3302 0.3302,0.807156 0,0.476955 -0.3302,0.807155 -0.3302,0.3302 -0.8255,0.3302 -0.476956,0 -0.8255,-0.3302 -0.3302,-0.3302 -0.3302,-0.807155 z"
       style="font-style:normal;font-variant:normal;font-weight:normal;font-stretch:normal;font-size:18.34444427px;line-height:1;font-family:'Coco Gothic';-inkscape-font-specification:'Coco Gothic';text-align:center;text-anchor:middle;fill:#4a4a4a;fill-opacity:1;stroke-width:0.26458332"
       id="path881" />
    <path
       d="m 47.785267,48.308901 q -0.898878,0 -1.687689,-0.366889 -0.788811,-0.366888 -1.375834,-0.9906 -0.587022,-0.642055 -0.935566,-1.504244 -0.3302,-0.862189 -0.3302,-1.834444 0,-0.972256 0.3302,-1.834445 0.348544,-0.862189 0.935566,-1.504244 0.587023,-0.642056 1.375834,-1.008945 0.788811,-0.366889 1.687689,-0.366889 0.843844,0 1.577622,0.348545 0.752122,0.3302 1.302455,0.917222 0.568678,0.587022 0.898878,1.375833 0.3302,0.788812 0.3302,1.687689 v 0.220134 q 0,0.550333 -0.348544,0.697088 -0.348545,0.146756 -0.843845,0.146756 h -5.631744 q 0.1651,1.100667 0.917222,1.797756 0.770467,0.678744 1.797756,0.678744 0.550333,0 1.100666,-0.201789 0.568678,-0.201789 1.008945,-0.568678 0.128411,-0.128411 0.3302,-0.128411 0.128411,0 0.201789,0.110067 l 0.513644,0.770467 q 0.07338,0.07338 0.07338,0.1651 -0.01834,0.128411 -0.128411,0.220133 -0.09172,0.09172 -0.183445,0.146755 -0.623711,0.421923 -1.339144,0.733778 -0.715433,0.293511 -1.577622,0.293511 z m -2.6416,-5.374922 h 5.191477 q -0.09172,-0.513644 -0.3302,-0.972255 -0.238477,-0.458611 -0.587022,-0.788811 -0.348544,-0.348545 -0.788811,-0.531989 -0.421922,-0.201789 -0.880533,-0.201789 -0.476956,0 -0.898878,0.201789 -0.421922,0.183444 -0.770467,0.531989 -0.3302,0.3302 -0.587022,0.788811 -0.238478,0.458611 -0.348544,0.972255 z"
       style="font-style:normal;font-variant:normal;font-weight:normal;font-stretch:normal;font-size:18.34444427px;line-height:1;font-family:'Coco Gothic';-inkscape-font-specification:'Coco Gothic';text-align:center;text-anchor:middle;fill:#4a4a4a;fill-opacity:1;stroke-width:0.26458332"
       id="path883" />
    <path
       d="M 53.880206,47.68519 V 34.880768 q 0,-0.1651 0.09172,-0.275167 0.110066,-0.128411 0.311855,-0.128411 h 0.752123 q 0.1651,0 0.293511,0.110067 0.128411,0.110067 0.128411,0.293511 v 7.778045 l 3.173589,-3.320345 q 0.110066,-0.110067 0.201789,-0.183444 0.110066,-0.07338 0.293511,-0.07338 h 1.284111 q 0.275166,0 0.275166,0.201789 0,0.110066 -0.03669,0.1651 -0.01835,0.03669 -0.110067,0.146755 l -2.8067,2.861734 4.219222,5.136444 q 0.1651,0.1651 0.1651,0.293511 0,0.201789 -0.311855,0.201789 h -1.265767 q -0.128411,0 -0.275167,-0.07338 -0.128411,-0.07338 -0.238478,-0.220133 l -3.393722,-4.219222 -1.174044,1.210733 v 2.898422 q 0,0.403578 -0.421922,0.403578 h -0.752123 q -0.403577,0 -0.403577,-0.403578 z"
       style="font-style:normal;font-variant:normal;font-weight:normal;font-stretch:normal;font-size:18.34444427px;line-height:1;font-family:'Coco Gothic';-inkscape-font-specification:'Coco Gothic';text-align:center;text-anchor:middle;fill:#4a4a4a;fill-opacity:1;stroke-width:0.26458332"
       id="path885" />
    <path
       d="m 66.600934,48.235524 q -0.07338,0 -0.146756,0 -0.05503,0.01834 -0.146755,0.01834 -0.440267,0 -0.862189,-0.07338 -0.403578,-0.05503 -0.715433,-0.275166 -0.311856,-0.238478 -0.513645,-0.678745 -0.183444,-0.440267 -0.183444,-1.174044 v -5.503334 h -1.100667 q -0.220133,0 -0.348544,-0.07338 -0.110067,-0.09172 -0.110067,-0.3302 v -0.678745 q 0,-0.238478 0.110067,-0.311855 0.128411,-0.07338 0.348544,-0.07338 h 1.100667 v -2.586567 q 0,-0.293511 0.311855,-0.366889 l 0.935567,-0.128411 q 0.220133,0 0.275167,0.146756 0.07338,0.146755 0.07338,0.3302 v 2.604911 h 1.357489 q 0.403578,0 0.403578,0.421922 v 0.605367 q 0,0.440266 -0.403578,0.440266 h -1.357489 v 4.916311 q 0,0.458612 0.03669,0.715434 0.05503,0.256822 0.1651,0.385233 0.128411,0.128411 0.311856,0.1651 0.183444,0.01834 0.458611,0.01834 0.458611,0 0.458611,0.458611 v 0.587022 q 0,0.403578 -0.458611,0.440267 z"
       style="font-style:normal;font-variant:normal;font-weight:normal;font-stretch:normal;font-size:18.34444427px;line-height:1;font-family:'Coco Gothic';-inkscape-font-specification:'Coco Gothic';text-align:center;text-anchor:middle;fill:#4a4a4a;fill-opacity:1;stroke-width:0.26458332"
       id="path887" />
    <path
       d="m 68.464614,43.612724 q 0,-0.972256 0.366889,-1.834445 0.366889,-0.862189 0.9906,-1.504244 0.642056,-0.642056 1.504245,-1.008945 0.862188,-0.366889 1.834444,-0.366889 0.972256,0 1.834444,0.366889 0.862189,0.366889 1.504245,1.008945 0.642055,0.642055 1.008944,1.504244 0.366889,0.862189 0.366889,1.834445 0,0.972255 -0.366889,1.834444 -0.366889,0.862189 -1.008944,1.504244 -0.642056,0.623712 -1.504245,0.9906 -0.862188,0.366889 -1.834444,0.366889 -0.972256,0 -1.834444,-0.366889 -0.862189,-0.366888 -1.504245,-0.9906 -0.623711,-0.642055 -0.9906,-1.504244 -0.366889,-0.862189 -0.366889,-1.834444 z m 1.4859,0 q 0,0.6604 0.256822,1.247422 0.256823,0.587022 0.678745,1.027289 0.440267,0.440266 1.027289,0.697089 0.587022,0.256822 1.247422,0.256822 0.6604,0 1.247422,-0.256822 0.587022,-0.256823 1.027289,-0.697089 0.440267,-0.440267 0.697089,-1.027289 0.256822,-0.587022 0.256822,-1.247422 0,-0.6604 -0.256822,-1.247423 -0.256822,-0.587022 -0.697089,-1.027288 -0.440267,-0.458612 -1.027289,-0.715434 -0.587022,-0.256822 -1.247422,-0.256822 -0.6604,0 -1.247422,0.256822 -0.587022,0.256822 -1.027289,0.715434 -0.421922,0.440266 -0.678745,1.027288 -0.256822,0.587023 -0.256822,1.247423 z"
       style="font-style:normal;font-variant:normal;font-weight:normal;font-stretch:normal;font-size:18.34444427px;line-height:1;font-family:'Coco Gothic';-inkscape-font-specification:'Coco Gothic';text-align:center;text-anchor:middle;fill:#4a4a4a;fill-opacity:1;stroke-width:0.26458332"
       id="path889" />
    <path
       d="m 80.069196,39.448535 q 0.293511,0.733778 0.605367,1.559278 0.311856,0.807155 0.623711,1.614311 0.3302,0.807155 0.623711,1.577622 0.311856,0.770466 0.587022,1.412522 0.366889,-0.898878 0.788812,-1.944511 0.421922,-1.045633 0.843844,-2.1463 l 0.8255,-2.091267 q 0.128411,-0.348544 0.4953,-0.348544 h 0.770467 q 0.421922,0 0.421922,0.311855 0,0.03669 -0.01835,0.128412 -0.01834,0.07338 -0.03669,0.09172 -0.183444,0.458611 -0.366888,0.917222 -0.183445,0.440267 -0.385234,0.880533 0.256822,0.678745 0.513645,1.357489 0.275166,0.6604 0.531989,1.284111 l 0.642055,1.559278 q 0.275167,-0.642056 0.568678,-1.412522 0.311855,-0.770467 0.623711,-1.577622 0.3302,-0.807156 0.642056,-1.632656 0.3302,-0.8255 0.623711,-1.559278 0.05503,-0.146755 0.183444,-0.238477 0.128411,-0.110067 0.311856,-0.110067 h 0.770466 q 0.440267,0 0.440267,0.311855 0,0.03669 -0.03669,0.128412 -0.01834,0.07338 -0.01834,0.09172 l -3.357034,8.126589 q 0,-0.03669 -0.110066,0.1651 -0.09172,0.183444 -0.366889,0.183444 h -0.531989 q -0.238478,0 -0.348545,-0.128411 -0.09172,-0.128411 -0.128411,-0.220133 l -1.779411,-4.2926 -1.761066,4.2926 q -0.03669,0.03669 -0.110067,0.183444 -0.05503,0.146756 -0.311856,0.146756 l -0.03669,0.01834 h -0.550334 q -0.238478,0 -0.348544,-0.128411 -0.09172,-0.128411 -0.128411,-0.220133 l -3.357034,-8.126589 q 0,0.01834 -0.01834,-0.05503 -0.01834,-0.09172 -0.01834,-0.183444 0,-0.293511 0.403578,-0.293511 h 0.770467 q 0.183444,0 0.311855,0.110067 0.128412,0.110066 0.201789,0.256822 z"
       style="font-style:normal;font-variant:normal;font-weight:normal;font-stretch:normal;font-size:18.34444427px;line-height:1;font-family:'Coco Gothic';-inkscape-font-specification:'Coco Gothic';text-align:center;text-anchor:middle;fill:#4a4a4a;fill-opacity:1;stroke-width:0.26458332"
       id="path891" />
    <path
       d="m 99.049384,47.630157 v -0.862189 q -0.403577,0.623711 -1.027288,1.063978 -0.623712,0.440266 -1.742723,0.440266 -0.953911,0 -1.761066,-0.348544 -0.807156,-0.366889 -1.394178,-0.9906 -0.587022,-0.642056 -0.917222,-1.4859 -0.311856,-0.862189 -0.311856,-1.834444 0,-0.972256 0.311856,-1.8161 0.3302,-0.862189 0.898877,-1.4859 0.587023,-0.642056 1.394178,-1.008945 0.807156,-0.366889 1.779411,-0.366889 0.568678,0 0.9906,0.128411 0.421923,0.128412 0.752123,0.348545 0.3302,0.201789 0.568677,0.476955 0.256823,0.275167 0.458611,0.568678 l 0.07338,-0.917222 q 0.01835,-0.220133 0.110067,-0.3302 0.09172,-0.128411 0.3302,-0.128411 h 0.531991 q 0.20179,0 0.3302,0.128411 0.14675,0.110067 0.14675,0.3302 v 8.144933 q 0,0.183445 -0.14675,0.293511 -0.12841,0.110067 -0.3302,0.110067 h -0.587024 q -0.458612,0 -0.458612,-0.458611 z M 93.41764,43.612724 q 0,0.642055 0.201789,1.210733 0.201789,0.568678 0.568678,1.008944 0.385233,0.421923 0.917222,0.678745 0.531989,0.238478 1.174044,0.238478 0.6604,0 1.174045,-0.238478 0.513644,-0.238478 0.862189,-0.642056 0.366889,-0.421922 0.550333,-0.9906 0.183444,-0.568678 0.183444,-1.229078 0,-0.642055 -0.183444,-1.210733 -0.183444,-0.587022 -0.531989,-1.008944 -0.348544,-0.440267 -0.862189,-0.697089 -0.513644,-0.256822 -1.192389,-0.256822 -0.6604,0 -1.192389,0.256822 -0.531988,0.238478 -0.898877,0.678744 -0.366889,0.421923 -0.568678,0.9906 -0.201789,0.568678 -0.201789,1.210734 z"
       style="font-style:normal;font-variant:normal;font-weight:normal;font-stretch:normal;font-size:18.34444427px;line-height:1;font-family:'Coco Gothic';-inkscape-font-specification:'Coco Gothic';text-align:center;text-anchor:middle;fill:#4a4a4a;fill-opacity:1;stroke-width:0.26458332"
       id="path893" />
    <path
       d="m 105.06178,39.521913 0.055,0.8255 q 0.22013,-0.256823 0.56868,-0.513645 0.34854,-0.256822 0.77046,-0.458611 0.42193,-0.201789 0.88054,-0.3302 0.45861,-0.128411 0.86219,-0.128411 0.78881,0 1.43086,0.311855 0.64206,0.293512 1.08232,0.807156 0.45862,0.513644 0.69709,1.210733 0.23848,0.697089 0.23848,1.504245 v 4.879622 q 0,0.220133 -0.12841,0.348544 -0.12841,0.110067 -0.31186,0.110067 h -0.75212 q -0.25682,0 -0.3302,-0.110067 -0.0734,-0.110066 -0.0734,-0.3302 v -4.897966 q 0,-0.458611 -0.1651,-0.862189 -0.14675,-0.421922 -0.44026,-0.715433 -0.29351,-0.311856 -0.71544,-0.4953 -0.40357,-0.183445 -0.93556,-0.183445 -0.45861,0 -0.93557,0.1651 -0.47695,0.1651 -0.86219,0.440267 -0.38523,0.275166 -0.64205,0.623711 -0.23848,0.348544 -0.23848,0.715433 v 5.246511 q 0,0.403578 -0.40358,0.403578 h -0.75212 q -0.42192,0 -0.42192,-0.403578 v -8.163277 q 0,-0.201789 0.11006,-0.293512 0.12841,-0.110066 0.29351,-0.110066 h 0.69709 q 0.38524,0 0.42193,0.403578 z"
       style="font-style:normal;font-variant:normal;font-weight:normal;font-stretch:normal;font-size:18.34444427px;line-height:1;font-family:'Coco Gothic';-inkscape-font-specification:'Coco Gothic';text-align:center;text-anchor:middle;fill:#4a4a4a;fill-opacity:1;stroke-width:0.26458332"
       id="path895" />
    <path
       d="m 115.973,39.485224 v 8.199966 q 0,0.403578 -0.40358,0.403578 h -0.77047 q -0.40358,0 -0.40358,-0.403578 v -8.199966 q 0,-0.403578 0.40358,-0.403578 h 0.77047 q 0.40358,0 0.40358,0.403578 z m -1.94452,-2.935111 q 0,-0.476956 0.3302,-0.807156 0.34855,-0.348544 0.8255,-0.348544 0.4953,0 0.8255,0.348544 0.3302,0.3302 0.3302,0.807156 0,0.476955 -0.3302,0.807155 -0.3302,0.3302 -0.8255,0.3302 -0.47695,0 -0.8255,-0.3302 -0.3302,-0.3302 -0.3302,-0.807155 z"
       style="font-style:normal;font-variant:normal;font-weight:normal;font-stretch:normal;font-size:18.34444427px;line-height:1;font-family:'Coco Gothic';-inkscape-font-specification:'Coco Gothic';text-align:center;text-anchor:middle;fill:#4a4a4a;fill-opacity:1;stroke-width:0.26458332"
       id="path897" />
    <path
       d="m 122.5962,48.308901 q -0.89888,0 -1.68769,-0.366889 -0.78881,-0.366888 -1.37583,-0.9906 -0.58702,-0.642055 -0.93557,-1.504244 -0.3302,-0.862189 -0.3302,-1.834444 0,-0.972256 0.3302,-1.834445 0.34855,-0.862189 0.93557,-1.504244 0.58702,-0.642056 1.37583,-1.008945 0.78881,-0.366889 1.68769,-0.366889 0.84385,0 1.57762,0.348545 0.75213,0.3302 1.30246,0.917222 0.56868,0.587022 0.89888,1.375833 0.3302,0.788812 0.3302,1.687689 v 0.220134 q 0,0.550333 -0.34855,0.697088 -0.34854,0.146756 -0.84384,0.146756 h -5.63175 q 0.1651,1.100667 0.91723,1.797756 0.77046,0.678744 1.79775,0.678744 0.55034,0 1.10067,-0.201789 0.56868,-0.201789 1.00894,-0.568678 0.12841,-0.128411 0.3302,-0.128411 0.12841,0 0.20179,0.110067 l 0.51365,0.770467 q 0.0734,0.07338 0.0734,0.1651 -0.0183,0.128411 -0.12841,0.220133 -0.0917,0.09172 -0.18344,0.146755 -0.62371,0.421923 -1.33915,0.733778 -0.71543,0.293511 -1.57762,0.293511 z m -2.6416,-5.374922 h 5.19148 q -0.0917,-0.513644 -0.3302,-0.972255 -0.23848,-0.458611 -0.58702,-0.788811 -0.34855,-0.348545 -0.78881,-0.531989 -0.42193,-0.201789 -0.88054,-0.201789 -0.47695,0 -0.89887,0.201789 -0.42193,0.183444 -0.77047,0.531989 -0.3302,0.3302 -0.58702,0.788811 -0.23848,0.458611 -0.34855,0.972255 z"
       style="font-style:normal;font-variant:normal;font-weight:normal;font-stretch:normal;font-size:18.34444427px;line-height:1;font-family:'Coco Gothic';-inkscape-font-specification:'Coco Gothic';text-align:center;text-anchor:middle;fill:#4a4a4a;fill-opacity:1;stroke-width:0.26458332"
       id="path899" />
    <path
       d="m 8.9709999,65.18579 q 0.5503333,0 1.1190111,-0.220133 0.568678,-0.238478 0.9906,-0.605367 0.1651,-0.128411 0.3302,-0.128411 0.146756,0 0.201789,0.110067 l 0.531989,0.752122 q 0.05503,0.07338 0.05503,0.1651 0,0.128411 -0.110067,0.220133 -0.110066,0.09172 -0.201788,0.146756 -0.605367,0.421922 -1.339145,0.733778 -0.7337777,0.293511 -1.5776221,0.293511 -0.9722556,0 -1.8344444,-0.366889 -0.8621889,-0.366889 -1.5042445,-0.9906 -0.6237111,-0.642056 -0.9906,-1.504245 -0.3668888,-0.862189 -0.3668888,-1.834444 0,-0.972256 0.3668888,-1.834445 0.3668889,-0.862188 0.9906,-1.504244 0.6420556,-0.642056 1.5042445,-1.008944 0.8621888,-0.366889 1.8344444,-0.366889 0.7337778,0 1.4125221,0.220133 0.697089,0.220133 1.412522,0.733778 0.293511,0.201789 0.293511,0.366889 0,0.03669 -0.01834,0.110066 0,0.05503 -0.03669,0.09172 l -0.4953,0.788811 v -0.01834 q -0.07338,0.110067 -0.238478,0.110067 -0.110066,0 -0.293511,-0.146756 -0.421922,-0.3302 -0.935566,-0.550333 -0.5136449,-0.238478 -1.1006671,-0.238478 -0.6604,0 -1.2474222,0.256822 -0.5870222,0.256823 -1.0272889,0.715434 -0.4402667,0.440266 -0.6970889,1.027289 -0.2568222,0.587022 -0.2568222,1.247422 0,0.6604 0.2568222,1.247422 0.2568222,0.587022 0.6970889,1.027289 0.4402667,0.440267 1.0272889,0.697089 0.5870222,0.256822 1.2474222,0.256822 z"
       style="font-style:normal;font-variant:normal;font-weight:normal;font-stretch:normal;font-size:18.34444427px;line-height:1;font-family:'Coco Gothic';-inkscape-font-specification:'Coco Gothic';text-align:center;text-anchor:middle;fill:#4a4a4a;fill-opacity:1;stroke-width:0.26458332"
       id="path901" />
    <path
       d="m 20.963108,66.433212 h -6.622345 q -0.201789,0 -0.348544,-0.128411 -0.128411,-0.146755 -0.128411,-0.348544 v -0.550334 q 0,-0.07338 0.01834,-0.146755 0.01834,-0.09172 0.05503,-0.146756 0.458611,-0.531989 1.192389,-1.357489 0.733778,-0.8255 1.504245,-1.724377 0.788811,-0.898878 1.522589,-1.724378 0.733777,-0.843845 1.192388,-1.357489 h -4.916311 q -0.476955,0 -0.476955,-0.513644 v -0.531989 q 0,-0.476956 0.476955,-0.476956 h 6.457245 q 0.220133,0 0.348544,0.110067 0.146756,0.09172 0.146756,0.293511 v 0.6604 q 0,0.256822 -0.05503,0.366889 -0.05503,0.09172 -0.201788,0.256822 l -5.099756,5.833533 h 4.934656 q 0.201788,0 0.3302,0.110067 0.128411,0.110067 0.128411,0.348544 v 0.550334 q 0,0.183444 -0.128411,0.3302 -0.128412,0.146755 -0.3302,0.146755 z"
       style="font-style:normal;font-variant:normal;font-weight:normal;font-stretch:normal;font-size:18.34444427px;line-height:1;font-family:'Coco Gothic';-inkscape-font-specification:'Coco Gothic';text-align:center;text-anchor:middle;fill:#4a4a4a;fill-opacity:1;stroke-width:0.26458332"
       id="path903" />
    <path
       d="m 26.646158,66.653346 q -0.898878,0 -1.687689,-0.366889 -0.788811,-0.366889 -1.375833,-0.9906 -0.587022,-0.642056 -0.935567,-1.504245 -0.3302,-0.862189 -0.3302,-1.834444 0,-0.972256 0.3302,-1.834445 0.348545,-0.862188 0.935567,-1.504244 0.587022,-0.642056 1.375833,-1.008944 0.788811,-0.366889 1.687689,-0.366889 0.843845,0 1.577622,0.348544 0.752123,0.3302 1.302456,0.917222 0.568678,0.587023 0.898878,1.375834 0.3302,0.788811 0.3302,1.687689 v 0.220133 q 0,0.550333 -0.348545,0.697089 -0.348544,0.146755 -0.843844,0.146755 H 23.93118 q 0.1651,1.100667 0.917223,1.797756 0.770466,0.678744 1.797755,0.678744 0.550334,0 1.100667,-0.201789 0.568678,-0.201788 1.008944,-0.568677 0.128411,-0.128411 0.3302,-0.128411 0.128411,0 0.201789,0.110066 l 0.513645,0.770467 q 0.07338,0.07338 0.07338,0.1651 -0.01834,0.128411 -0.128411,0.220133 -0.09172,0.09172 -0.183444,0.146756 -0.623711,0.421922 -1.339145,0.733778 -0.715433,0.293511 -1.577622,0.293511 z m -2.6416,-5.374923 h 5.191478 q -0.09172,-0.513644 -0.3302,-0.972255 -0.238478,-0.458611 -0.587022,-0.788811 -0.348545,-0.348545 -0.788811,-0.531989 -0.421923,-0.201789 -0.880534,-0.201789 -0.476955,0 -0.898877,0.201789 -0.421923,0.183444 -0.770467,0.531989 -0.3302,0.3302 -0.587022,0.788811 -0.238478,0.458611 -0.348545,0.972255 z m 2.164645,5.264856 q 0,-0.110067 0.01834,-0.220133 0.03669,-0.128411 0.220133,-0.128411 h 0.788812 q 0.146755,0 0.220133,0.03669 0.07338,0.03669 0.07338,0.220134 v 0.238478 q 0,0.421922 -0.275167,0.788811 -0.256822,0.366888 -0.623711,0.531988 -0.311856,0.201789 -0.550333,0.366889 -0.238478,0.1651 -0.238478,0.476956 0,0.293511 0.348544,0.531989 0.366889,0.238478 1.008945,0.385233 0.183444,0.05503 0.183444,0.256822 0,0.110067 -0.03669,0.238478 -0.03669,0.146756 -0.110066,0.275167 -0.05503,0.146755 -0.1651,0.238478 -0.09172,0.09172 -0.220134,0.09172 -0.03669,0 -0.07338,-0.01834 -0.01834,0 -0.05503,0 -1.119011,-0.3302 -1.651,-0.807155 -0.513644,-0.458611 -0.568678,-1.063978 0,-0.366889 0.110067,-0.623711 0.110067,-0.256822 0.293511,-0.458611 0.183445,-0.201789 0.403578,-0.366889 0.220133,-0.146756 0.458611,-0.293511 0.275167,-0.183445 0.348544,-0.348545 0.09172,-0.1651 0.09172,-0.348544 z"
       style="font-style:normal;font-variant:normal;font-weight:normal;font-stretch:normal;font-size:18.34444427px;line-height:1;font-family:'Coco Gothic';-inkscape-font-specification:'Coco Gothic';text-align:center;text-anchor:middle;fill:#4a4a4a;fill-opacity:1;stroke-width:0.26458332"
       id="path905" />
    <path
       d="m 31.970634,64.598768 q -0.03669,-0.09172 -0.03669,-0.201789 0.01835,-0.128411 0.128412,-0.1651 l 0.917222,-0.366889 q 0.146755,-0.07338 0.256822,0.03669 0.128411,0.09172 0.1651,0.238478 0.110067,0.275166 0.311856,0.476955 0.201788,0.183445 0.440266,0.311856 0.256822,0.110067 0.4953,0.1651 0.256822,0.05503 0.440267,0.05503 0.311855,0 0.605367,-0.07338 0.311855,-0.09172 0.550333,-0.238477 0.256822,-0.1651 0.403578,-0.385234 0.1651,-0.220133 0.1651,-0.4953 0,-0.311855 -0.1651,-0.531989 -0.146756,-0.220133 -0.403578,-0.385233 -0.256822,-0.1651 -0.605367,-0.275167 -0.3302,-0.128411 -0.715433,-0.238477 -1.210733,-0.311856 -1.944511,-0.9906 -0.733778,-0.678745 -0.733778,-1.742723 0,-0.568677 0.201789,-1.045633 0.220133,-0.476955 0.605367,-0.807155 0.385233,-0.348545 0.917222,-0.531989 0.550333,-0.201789 1.210733,-0.201789 1.027289,0 1.651,0.476955 0.642056,0.476956 1.119011,1.302456 0.03669,0.07338 0.05503,0.1651 0.01834,0.07338 -0.07338,0.146755 l -0.752122,0.531989 q -0.146756,0.110067 -0.256823,0 -0.110066,-0.128411 -0.238477,-0.293511 -0.256823,-0.366889 -0.623712,-0.623711 -0.366888,-0.275167 -0.862188,-0.275167 -0.6604,0 -1.082323,0.366889 -0.403577,0.348545 -0.403577,0.788811 0,0.275167 0.128411,0.4953 0.146755,0.201789 0.366889,0.348545 0.220133,0.146755 0.476955,0.238478 0.275167,0.09172 0.531989,0.1651 1.467556,0.366889 2.293056,1.100666 0.843844,0.715434 0.843844,1.8161 0,0.605367 -0.256822,1.100667 -0.238478,0.4953 -0.678745,0.843844 -0.421922,0.3302 -1.027289,0.513645 -0.587022,0.183444 -1.302455,0.183444 -0.4953,0 -0.9906,-0.128411 -0.4953,-0.128411 -0.935567,-0.366889 -0.421922,-0.256822 -0.733778,-0.623711 -0.311855,-0.385233 -0.458611,-0.880533 z m 4.879623,-11.2268 -0.8255,1.926167 q -0.183445,0.385233 -0.4953,0.385233 h -0.6604 q -0.275167,0 -0.293512,-0.183445 0,-0.201788 0.09172,-0.403577 l 0.807155,-1.871134 q 0.146756,-0.385233 0.4953,-0.385233 h 0.733778 q 0.256822,0 0.256822,0.146756 0,0.146755 -0.110066,0.385233 z"
       style="font-style:normal;font-variant:normal;font-weight:normal;font-stretch:normal;font-size:18.34444427px;line-height:1;font-family:'Coco Gothic';-inkscape-font-specification:'Coco Gothic';text-align:center;text-anchor:middle;fill:#4a4a4a;fill-opacity:1;stroke-width:0.26458332"
       id="path907" />
    <path
       d="m 44.477531,65.18579 q 0.550333,0 1.119011,-0.220133 0.568678,-0.238478 0.9906,-0.605367 0.1651,-0.128411 0.3302,-0.128411 0.146755,0 0.201789,0.110067 l 0.531989,0.752122 q 0.05503,0.07338 0.05503,0.1651 0,0.128411 -0.110067,0.220133 -0.110066,0.09172 -0.201789,0.146756 -0.605366,0.421922 -1.339144,0.733778 -0.733778,0.293511 -1.577622,0.293511 -0.972256,0 -1.834445,-0.366889 -0.862189,-0.366889 -1.504244,-0.9906 -0.623711,-0.642056 -0.9906,-1.504245 -0.366889,-0.862189 -0.366889,-1.834444 0,-0.972256 0.366889,-1.834445 0.366889,-0.862188 0.9906,-1.504244 0.642055,-0.642056 1.504244,-1.008944 0.862189,-0.366889 1.834445,-0.366889 0.733777,0 1.412522,0.220133 0.697089,0.220133 1.412522,0.733778 0.293511,0.201789 0.293511,0.366889 0,0.03669 -0.01834,0.110066 0,0.05503 -0.03669,0.09172 l -0.4953,0.788811 v -0.01834 q -0.07338,0.110067 -0.238478,0.110067 -0.110067,0 -0.293511,-0.146756 -0.421922,-0.3302 -0.935567,-0.550333 -0.513644,-0.238478 -1.100666,-0.238478 -0.6604,0 -1.247423,0.256822 -0.587022,0.256823 -1.027288,0.715434 -0.440267,0.440266 -0.697089,1.027289 -0.256823,0.587022 -0.256823,1.247422 0,0.6604 0.256823,1.247422 0.256822,0.587022 0.697089,1.027289 0.440266,0.440267 1.027288,0.697089 0.587023,0.256822 1.247423,0.256822 z"
       style="font-style:normal;font-variant:normal;font-weight:normal;font-stretch:normal;font-size:18.34444427px;line-height:1;font-family:'Coco Gothic';-inkscape-font-specification:'Coco Gothic';text-align:center;text-anchor:middle;fill:#4a4a4a;fill-opacity:1;stroke-width:0.26458332"
       id="path909" />
    <path
       d="m 51.516641,57.829668 v 8.199967 q 0,0.403577 -0.403578,0.403577 h -0.770466 q -0.403578,0 -0.403578,-0.403577 v -8.199967 q 0,-0.403578 0.403578,-0.403578 h 0.770466 q 0.403578,0 0.403578,0.403578 z M 49.57213,54.894557 q 0,-0.476956 0.3302,-0.807156 0.348545,-0.348544 0.8255,-0.348544 0.4953,0 0.8255,0.348544 0.3302,0.3302 0.3302,0.807156 0,0.476955 -0.3302,0.807155 -0.3302,0.3302 -0.8255,0.3302 -0.476955,0 -0.8255,-0.3302 -0.3302,-0.3302 -0.3302,-0.807155 z"
       style="font-style:normal;font-variant:normal;font-weight:normal;font-stretch:normal;font-size:18.34444427px;line-height:1;font-family:'Coco Gothic';-inkscape-font-specification:'Coco Gothic';text-align:center;text-anchor:middle;fill:#4a4a4a;fill-opacity:1;stroke-width:0.26458332"
       id="path911" />
    <path
       d="m 61.799562,57.829668 v 8.199967 q 0,0.403577 -0.403578,0.403577 h -0.770466 q -0.403578,0 -0.403578,-0.403577 v -8.199967 q 0,-0.403578 0.403578,-0.403578 h 0.770466 q 0.403578,0 0.403578,0.403578 z m -1.944511,-2.935111 q 0,-0.476956 0.3302,-0.807156 0.348544,-0.348544 0.8255,-0.348544 0.4953,0 0.8255,0.348544 0.3302,0.3302 0.3302,0.807156 0,0.476955 -0.3302,0.807155 -0.3302,0.3302 -0.8255,0.3302 -0.476956,0 -0.8255,-0.3302 -0.3302,-0.3302 -0.3302,-0.807155 z"
       style="font-style:normal;font-variant:normal;font-weight:normal;font-stretch:normal;font-size:18.34444427px;line-height:1;font-family:'Coco Gothic';-inkscape-font-specification:'Coco Gothic';text-align:center;text-anchor:middle;fill:#4a4a4a;fill-opacity:1;stroke-width:0.26458332"
       id="path913" />
    <path
       d="m 72.02745,57.866357 0.05503,0.807155 q 0.366889,-0.531989 1.027289,-0.953911 0.678744,-0.421922 1.540933,-0.421922 1.082322,0 1.724378,0.568678 0.642055,0.550333 1.027289,1.302455 0.421922,-0.8255 1.192389,-1.357489 0.770466,-0.550333 1.797755,-0.550333 0.788811,0 1.394178,0.311856 0.605367,0.293511 1.027289,0.8255 0.421922,0.513644 0.642055,1.210733 0.220134,0.678744 0.220134,1.449211 v 4.916311 q 0,0.220134 -0.128411,0.348545 -0.128412,0.110066 -0.3302,0.110066 h -0.6604 q -0.476956,0 -0.476956,-0.440266 v -4.953 q 0,-0.917223 -0.458611,-1.559278 -0.440267,-0.642056 -1.467556,-0.642056 -0.403577,0 -0.8255,0.1651 -0.403577,0.1651 -0.733777,0.476956 -0.311856,0.293511 -0.513645,0.697089 -0.201789,0.403578 -0.201789,0.880533 v 4.916311 q 0,0.458611 -0.440266,0.458611 h -0.733778 q -0.238478,0 -0.3302,-0.110066 -0.07338,-0.110067 -0.07338,-0.3302 v -4.953 q 0,-0.935567 -0.476956,-1.559278 -0.458611,-0.642056 -1.467555,-0.642056 -0.440267,0 -0.862189,0.183445 -0.403578,0.1651 -0.733778,0.458611 -0.311855,0.293511 -0.4953,0.697089 -0.183444,0.385233 -0.183444,0.843844 v 5.008034 q 0,0.403577 -0.403578,0.403577 h -0.752122 q -0.421922,0 -0.421922,-0.403577 v -8.163278 q 0,-0.403578 0.403577,-0.403578 h 0.697089 q 0.385234,0 0.421923,0.403578 z"
       style="font-style:normal;font-variant:normal;font-weight:normal;font-stretch:normal;font-size:18.34444427px;line-height:1;font-family:'Coco Gothic';-inkscape-font-specification:'Coco Gothic';text-align:center;text-anchor:middle;fill:#4a4a4a;fill-opacity:1;stroke-width:0.26458332"
       id="path915" />
    <path
       d="m 92.922628,65.974601 v -0.862189 q -0.403578,0.623711 -1.027289,1.063978 -0.623711,0.440267 -1.742722,0.440267 -0.953911,0 -1.761067,-0.348545 -0.807155,-0.366889 -1.394177,-0.9906 -0.587023,-0.642055 -0.917223,-1.4859 -0.311855,-0.862189 -0.311855,-1.834444 0,-0.972256 0.311855,-1.8161 0.3302,-0.862189 0.898878,-1.4859 0.587022,-0.642056 1.394178,-1.008945 0.807155,-0.366888 1.779411,-0.366888 0.568678,0 0.9906,0.128411 0.421922,0.128411 0.752122,0.348544 0.3302,0.201789 0.568678,0.476956 0.256822,0.275166 0.458611,0.568677 l 0.07338,-0.917222 q 0.01834,-0.220133 0.110066,-0.3302 0.09172,-0.128411 0.3302,-0.128411 h 0.531989 q 0.201789,0 0.3302,0.128411 0.146756,0.110067 0.146756,0.3302 v 8.144934 q 0,0.183444 -0.146756,0.293511 -0.128411,0.110066 -0.3302,0.110066 h -0.587022 q -0.458611,0 -0.458611,-0.458611 z m -5.631744,-4.017433 q 0,0.642055 0.201789,1.210733 0.201788,0.568678 0.568677,1.008945 0.385234,0.421922 0.917223,0.678744 0.531988,0.238478 1.174044,0.238478 0.6604,0 1.174044,-0.238478 0.513645,-0.238478 0.862189,-0.642055 0.366889,-0.421923 0.550334,-0.9906 0.183444,-0.568678 0.183444,-1.229078 0,-0.642056 -0.183444,-1.210734 -0.183445,-0.587022 -0.531989,-1.008944 -0.348545,-0.440267 -0.862189,-0.697089 -0.513645,-0.256822 -1.192389,-0.256822 -0.6604,0 -1.192389,0.256822 -0.531989,0.238478 -0.898878,0.678745 -0.366889,0.421922 -0.568677,0.9906 -0.201789,0.568677 -0.201789,1.210733 z"
       style="font-style:normal;font-variant:normal;font-weight:normal;font-stretch:normal;font-size:18.34444427px;line-height:1;font-family:'Coco Gothic';-inkscape-font-specification:'Coco Gothic';text-align:center;text-anchor:middle;fill:#4a4a4a;fill-opacity:1;stroke-width:0.26458332"
       id="path917" />
    <path
       d="m 96.641964,64.598768 q -0.03669,-0.09172 -0.03669,-0.201789 0.01834,-0.128411 0.128411,-0.1651 l 0.917222,-0.366889 q 0.146756,-0.07338 0.256823,0.03669 0.128411,0.09172 0.1651,0.238478 0.110066,0.275166 0.311855,0.476955 0.201789,0.183445 0.440267,0.311856 0.256822,0.110067 0.4953,0.1651 0.256822,0.05503 0.440266,0.05503 0.311851,0 0.605371,-0.07338 0.31185,-0.09172 0.55033,-0.238477 0.25682,-0.1651 0.40358,-0.385234 0.1651,-0.220133 0.1651,-0.4953 0,-0.311855 -0.1651,-0.531989 -0.14676,-0.220133 -0.40358,-0.385233 -0.25682,-0.1651 -0.60537,-0.275167 -0.330197,-0.128411 -0.715431,-0.238477 -1.210733,-0.311856 -1.944511,-0.9906 -0.733777,-0.678745 -0.733777,-1.742723 0,-0.568677 0.201788,-1.045633 0.220134,-0.476955 0.605367,-0.807155 0.385233,-0.348545 0.917222,-0.531989 0.550334,-0.201789 1.210734,-0.201789 1.027288,0 1.650998,0.476955 0.64206,0.476956 1.11901,1.302456 0.0367,0.07338 0.055,0.1651 0.0183,0.07338 -0.0734,0.146755 l -0.75212,0.531989 q -0.14676,0.110067 -0.25683,0 -0.11006,-0.128411 -0.23847,-0.293511 -0.25683,-0.366889 -0.62372,-0.623711 -0.36688,-0.275167 -0.862184,-0.275167 -0.6604,0 -1.082322,0.366889 -0.403578,0.348545 -0.403578,0.788811 0,0.275167 0.128411,0.4953 0.146756,0.201789 0.366889,0.348545 0.220133,0.146755 0.476956,0.238478 0.275166,0.09172 0.531989,0.1651 1.467559,0.366889 2.293059,1.100666 0.84384,0.715434 0.84384,1.8161 0,0.605367 -0.25682,1.100667 -0.23848,0.4953 -0.67875,0.843844 -0.42192,0.3302 -1.02729,0.513645 -0.58702,0.183444 -1.302451,0.183444 -0.4953,0 -0.9906,-0.128411 -0.4953,-0.128411 -0.935566,-0.366889 -0.421922,-0.256822 -0.733778,-0.623711 -0.311856,-0.385233 -0.458611,-0.880533 z"
       style="font-style:normal;font-variant:normal;font-weight:normal;font-stretch:normal;font-size:18.34444427px;line-height:1;font-family:'Coco Gothic';-inkscape-font-specification:'Coco Gothic';text-align:center;text-anchor:middle;fill:#4a4a4a;fill-opacity:1;stroke-width:0.26458332"
       id="path919" />
    <path
       d="m 111.75378,66.433212 h -6.62235 q -0.20179,0 -0.34854,-0.128411 -0.12841,-0.146755 -0.12841,-0.348544 v -0.550334 q 0,-0.07338 0.0183,-0.146755 0.0183,-0.09172 0.055,-0.146756 0.45861,-0.531989 1.19239,-1.357489 0.73378,-0.8255 1.50425,-1.724377 0.78881,-0.898878 1.52259,-1.724378 0.73377,-0.843845 1.19238,-1.357489 h -4.91631 q -0.47695,0 -0.47695,-0.513644 v -0.531989 q 0,-0.476956 0.47695,-0.476956 h 6.45725 q 0.22013,0 0.34854,0.110067 0.14676,0.09172 0.14676,0.293511 v 0.6604 q 0,0.256822 -0.055,0.366889 -0.055,0.09172 -0.20178,0.256822 l -5.09976,5.833533 h 4.93466 q 0.20178,0 0.3302,0.110067 0.12841,0.110067 0.12841,0.348544 v 0.550334 q 0,0.183444 -0.12841,0.3302 -0.12842,0.146755 -0.3302,0.146755 z"
       style="font-style:normal;font-variant:normal;font-weight:normal;font-stretch:normal;font-size:18.34444427px;line-height:1;font-family:'Coco Gothic';-inkscape-font-specification:'Coco Gothic';text-align:center;text-anchor:middle;fill:#4a4a4a;fill-opacity:1;stroke-width:0.26458332"
       id="path921" />
    <path
       d="m 122.00058,58.25159 q -1.21073,2.861733 -2.36643,5.723467 -1.13736,2.843389 -2.32975,5.686777 -0.14675,0.311856 -0.4953,0.311856 h -0.73378 q -0.42192,0 -0.42192,-0.311856 0,-0.03669 0.0367,-0.183444 l 1.3208,-3.228622 -3.37538,-8.181622 q -0.055,-0.128411 -0.0734,-0.220134 0,-0.09172 0,-0.128411 0,-0.293511 0.38523,-0.293511 h 0.78881 q 0.34854,0 0.47696,0.3302 0.60536,1.614311 1.28411,3.338689 0.69709,1.706033 1.33914,3.302 l 2.62326,-6.677378 q 0.14675,-0.293511 0.4953,-0.293511 h 0.75212 q 0.44027,0 0.44027,0.366889 0,0.03669 -0.0183,0.128411 -0.0183,0.07338 -0.12841,0.3302 z"
       style="font-style:normal;font-variant:normal;font-weight:normal;font-stretch:normal;font-size:18.34444427px;line-height:1;font-family:'Coco Gothic';-inkscape-font-specification:'Coco Gothic';text-align:center;text-anchor:middle;fill:#4a4a4a;fill-opacity:1;stroke-width:0.26458332"
       id="path923" />
    <path
       d="m 125.44848,57.866357 0.055,0.8255 q 0.22013,-0.256822 0.56868,-0.513645 0.34854,-0.256822 0.77047,-0.458611 0.42192,-0.201789 0.88053,-0.3302 0.45861,-0.128411 0.86219,-0.128411 0.78881,0 1.43086,0.311856 0.64206,0.293511 1.08233,0.807155 0.45861,0.513645 0.69709,1.210734 0.23847,0.697088 0.23847,1.504244 v 4.879622 q 0,0.220134 -0.12841,0.348545 -0.12841,0.110066 -0.31185,0.110066 h -0.75213 q -0.25682,0 -0.3302,-0.110066 -0.0734,-0.110067 -0.0734,-0.3302 v -4.897967 q 0,-0.458611 -0.1651,-0.862189 -0.14676,-0.421922 -0.44027,-0.715433 -0.29351,-0.311856 -0.71543,-0.4953 -0.40358,-0.183445 -0.93557,-0.183445 -0.45861,0 -0.93557,0.1651 -0.47695,0.1651 -0.86219,0.440267 -0.38523,0.275167 -0.64205,0.623711 -0.23848,0.348545 -0.23848,0.715433 v 5.246512 q 0,0.403577 -0.40358,0.403577 h -0.75212 q -0.42192,0 -0.42192,-0.403577 v -8.163278 q 0,-0.201789 0.11007,-0.293511 0.12841,-0.110067 0.29351,-0.110067 h 0.69709 q 0.38523,0 0.42192,0.403578 z"
       style="font-style:normal;font-variant:normal;font-weight:normal;font-stretch:normal;font-size:18.34444427px;line-height:1;font-family:'Coco Gothic';-inkscape-font-specification:'Coco Gothic';text-align:center;text-anchor:middle;fill:#4a4a4a;fill-opacity:1;stroke-width:0.26458332"
       id="path925" />
  </g>
  <g
     aria-label="proto-typ"
     style="font-style:normal;font-variant:normal;font-weight:normal;font-stretch:normal;font-size:31.75000191px;line-height:1.25;font-family:'Coco Gothic';-inkscape-font-specification:'Coco Gothic';letter-spacing:0px;word-spacing:0px;fill:#4a4a4a;fill-opacity:1;stroke:none;stroke-width:0.21166667;stroke-miterlimit:4;stroke-dasharray:none"
     id="text240">
    <path
       d="M 0.49999999,30.121079 V 9.991578 q 0,-0.7937501 0.85725001,-0.7937501 h 0.8255001 q 0.85725,0 0.92075,0.7937501 l 0.1270001,1.397 q 0.73025,-1.04775 1.9685001,-1.7780001 1.23825,-0.73025 2.7622501,-0.73025 1.5240001,0 2.8575006,0.635 1.3335,0.6350001 2.31775,1.7462501 0.98425,1.0795 1.55575,2.57175 0.5715,1.4605 0.5715,3.14325 0,1.68275 -0.5715,3.175001 -0.5715,1.4605 -1.55575,2.57175 -0.98425,1.0795 -2.31775,1.7145 -1.3335005,0.60325 -2.8575006,0.60325 -1.6192501,0 -2.7940001,-0.635 -1.1747501,-0.66675 -1.9050001,-1.778 v 7.493 q 0,0.79375 -0.9207501,0.79375 H 1.42075 q -0.41275,0 -0.66674999,-0.22225 -0.25400002,-0.22225 -0.25400002,-0.5715 z M 3.2305002,17.040078 q 0,1.11125 0.34925,2.095501 0.381,0.98425 0.98425,1.7145 0.6350001,0.73025 1.4605001,1.17475 0.8572501,0.41275 1.8097501,0.41275 0.9525001,0 1.7780001,-0.41275 0.8572505,-0.4445 1.4605005,-1.17475 0.635,-0.73025 0.98425,-1.7145 0.34925,-0.984251 0.34925,-2.095501 0,-1.11125 -0.34925,-2.0955 -0.34925,-1.016 -0.98425,-1.74625 -0.60325,-0.762 -1.4605005,-1.17475 -0.8255,-0.4445 -1.7780001,-0.4445 -0.9525,0 -1.8097501,0.4445 -0.8255,0.41275 -1.4605001,1.17475 -0.60325,0.73025 -0.98425,1.7145 -0.34925,0.9525 -0.34925,2.06375 z"
       style="font-style:normal;font-variant:normal;font-weight:normal;font-stretch:normal;font-size:31.75000191px;line-height:5;font-family:'Coco Gothic';-inkscape-font-specification:'Coco Gothic';fill:#4a4a4a;fill-opacity:1;stroke-width:0.21166667;stroke-miterlimit:4;stroke-dasharray:none"
       id="path929" />
    <path
       d="m 21.861303,9.896328 0.15875,1.17475 q 0.41275,-0.73025 1.27,-1.4287501 0.85725,-0.6985 2.31775,-0.6985 0.53975,0 1.04775,0.15875 0.53975,0.15875 0.9525,0.381 0.4445,0.1905 0.6985,0.4127501 0.28575,0.22225 0.28575,0.381 0,0.0635 -0.0635,0.254 l -0.79375,1.49225 q -0.1905,0.3175 -0.41275,0.3175 -0.15875,0 -0.254,-0.0635 -0.0635,-0.0635 -0.127,-0.09525 -0.3175,-0.1905 -0.79375,-0.3175 -0.47625,-0.15875 -0.92075,-0.1905 -0.6985,0 -1.30175,0.381 -0.60325,0.381 -1.016,0.98425 -0.41275,0.5715 -0.66675,1.3335 -0.22225,0.73025 -0.22225,1.4605 v 8.255001 q 0,0.6985 -0.6985,0.6985 h -1.30175 q -0.73025,0 -0.73025,-0.6985 V 9.896328 q 0,-0.3175001 0.1905,-0.5080001 0.22225,-0.1905 0.508,-0.1905 h 1.143 q 0.34925,0 0.508,0.22225 0.1905,0.1905 0.22225,0.4762501 z"
       style="font-style:normal;font-variant:normal;font-weight:normal;font-stretch:normal;font-size:31.75000191px;line-height:5;font-family:'Coco Gothic';-inkscape-font-specification:'Coco Gothic';fill:#4a4a4a;fill-opacity:1;stroke-width:0.21166667;stroke-miterlimit:4;stroke-dasharray:none"
       id="path931" />
    <path
       d="m 29.214902,17.040078 q 0,-1.68275 0.635,-3.175 0.635,-1.49225 1.7145,-2.6035 1.11125,-1.11125 2.6035,-1.7462501 1.492251,-0.635 3.175001,-0.635 1.68275,0 3.175,0.635 1.49225,0.6350001 2.6035,1.7462501 1.11125,1.11125 1.74625,2.6035 0.635,1.49225 0.635,3.175 0,1.68275 -0.635,3.175001 -0.635,1.49225 -1.74625,2.6035 -1.11125,1.0795 -2.6035,1.7145 -1.49225,0.635 -3.175,0.635 -1.68275,0 -3.175001,-0.635 -1.49225,-0.635 -2.6035,-1.7145 -1.0795,-1.11125 -1.7145,-2.6035 -0.635,-1.492251 -0.635,-3.175001 z m 2.57175,0 q 0,1.143 0.4445,2.159001 0.4445,1.016 1.17475,1.778 0.762,0.762 1.778001,1.2065 1.016,0.4445 2.159,0.4445 1.143,0 2.159,-0.4445 1.016,-0.4445 1.778,-1.2065 0.762,-0.762 1.2065,-1.778 0.4445,-1.016001 0.4445,-2.159001 0,-1.143 -0.4445,-2.159 -0.4445,-1.016 -1.2065,-1.778 -0.762,-0.79375 -1.778,-1.23825 -1.016,-0.4445 -2.159,-0.4445 -1.143,0 -2.159,0.4445 -1.016001,0.4445 -1.778001,1.23825 -0.73025,0.762 -1.17475,1.778 -0.4445,1.016 -0.4445,2.159 z"
       style="font-style:normal;font-variant:normal;font-weight:normal;font-stretch:normal;font-size:31.75000191px;line-height:5;font-family:'Coco Gothic';-inkscape-font-specification:'Coco Gothic';fill:#4a4a4a;fill-opacity:1;stroke-width:0.21166667;stroke-miterlimit:4;stroke-dasharray:none"
       id="path933" />
    <path
       d="m 52.902387,25.041079 q -0.127,0 -0.254,0 -0.09525,0.03175 -0.254,0.03175 -0.762,0 -1.49225,-0.127 -0.6985,-0.09525 -1.23825,-0.47625 -0.53975,-0.41275 -0.889,-1.17475 -0.3175,-0.762 -0.3175,-2.032 v -9.525001 h -1.905 q -0.381,0 -0.60325,-0.127 -0.1905,-0.15875 -0.1905,-0.5715 v -1.17475 q 0,-0.4127501 0.1905,-0.5397501 0.22225,-0.127 0.60325,-0.127 h 1.905 V 4.7210777 q 0,-0.5080001 0.53975,-0.6350001 l 1.61925,-0.22225 q 0.381,0 0.47625,0.254 0.127,0.254 0.127,0.5715001 v 4.5085002 h 2.3495 q 0.6985,0 0.6985,0.7302501 v 1.04775 q 0,0.762 -0.6985,0.762 h -2.3495 v 8.509001 q 0,0.79375 0.0635,1.23825 0.09525,0.4445 0.28575,0.66675 0.22225,0.22225 0.53975,0.28575 0.3175,0.03175 0.79375,0.03175 0.79375,0 0.79375,0.79375 v 1.016 q 0,0.6985 -0.79375,0.762 z"
       style="font-style:normal;font-variant:normal;font-weight:normal;font-stretch:normal;font-size:31.75000191px;line-height:5;font-family:'Coco Gothic';-inkscape-font-specification:'Coco Gothic';fill:#4a4a4a;fill-opacity:1;stroke-width:0.21166667;stroke-miterlimit:4;stroke-dasharray:none"
       id="path935" />
    <path
       d="m 56.127992,17.040078 q 0,-1.68275 0.635,-3.175 0.635,-1.49225 1.7145,-2.6035 1.11125,-1.11125 2.6035,-1.7462501 1.49225,-0.635 3.175,-0.635 1.682751,0 3.175001,0.635 1.49225,0.6350001 2.6035,1.7462501 1.11125,1.11125 1.74625,2.6035 0.635,1.49225 0.635,3.175 0,1.68275 -0.635,3.175001 -0.635,1.49225 -1.74625,2.6035 -1.11125,1.0795 -2.6035,1.7145 -1.49225,0.635 -3.175001,0.635 -1.68275,0 -3.175,-0.635 -1.49225,-0.635 -2.6035,-1.7145 -1.0795,-1.11125 -1.7145,-2.6035 -0.635,-1.492251 -0.635,-3.175001 z m 2.57175,0 q 0,1.143 0.4445,2.159001 0.4445,1.016 1.17475,1.778 0.762,0.762 1.778,1.2065 1.016,0.4445 2.159,0.4445 1.143,0 2.159001,-0.4445 1.016,-0.4445 1.778,-1.2065 0.762,-0.762 1.2065,-1.778 0.4445,-1.016001 0.4445,-2.159001 0,-1.143 -0.4445,-2.159 -0.4445,-1.016 -1.2065,-1.778 -0.762,-0.79375 -1.778,-1.23825 -1.016001,-0.4445 -2.159001,-0.4445 -1.143,0 -2.159,0.4445 -1.016,0.4445 -1.778,1.23825 -0.73025,0.762 -1.17475,1.778 -0.4445,1.016 -0.4445,2.159 z"
       style="font-style:normal;font-variant:normal;font-weight:normal;font-stretch:normal;font-size:31.75000191px;line-height:5;font-family:'Coco Gothic';-inkscape-font-specification:'Coco Gothic';fill:#4a4a4a;fill-opacity:1;stroke-width:0.21166667;stroke-miterlimit:4;stroke-dasharray:none"
       id="path937" />
    <path
       d="m 77.380648,14.658828 h 10.096501 q 0.28575,0 0.47625,0.1905 0.22225,0.15875 0.22225,0.508 v 1.3335 q 0,0.28575 -0.1905,0.508 -0.1905,0.22225 -0.508,0.22225 H 77.380648 q -0.762,0 -0.762,-0.73025 v -1.3335 q 0,-0.6985 0.762,-0.6985 z"
       style="font-style:normal;font-variant:normal;font-weight:normal;font-stretch:normal;font-size:31.75000191px;line-height:5;font-family:'Coco Gothic';-inkscape-font-specification:'Coco Gothic';fill:#4a4a4a;fill-opacity:1;stroke-width:0.21166667;stroke-miterlimit:4;stroke-dasharray:none"
       id="path939" />
    <path
       d="m 98.481004,25.041079 q -0.127,0 -0.254,0 -0.09525,0.03175 -0.254,0.03175 -0.762,0 -1.49225,-0.127 -0.6985,-0.09525 -1.23825,-0.47625 -0.53975,-0.41275 -0.889,-1.17475 -0.3175,-0.762 -0.3175,-2.032 v -9.525001 h -1.905 q -0.381,0 -0.60325,-0.127 -0.1905,-0.15875 -0.1905,-0.5715 v -1.17475 q 0,-0.4127501 0.1905,-0.5397501 0.22225,-0.127 0.60325,-0.127 h 1.905 V 4.7210777 q 0,-0.5080001 0.53975,-0.6350001 l 1.61925,-0.22225 q 0.381,0 0.47625,0.254 0.127,0.254 0.127,0.5715001 v 4.5085002 h 2.3495 q 0.6985,0 0.6985,0.7302501 v 1.04775 q 0,0.762 -0.6985,0.762 h -2.3495 v 8.509001 q 0,0.79375 0.0635,1.23825 0.09525,0.4445 0.28575,0.66675 0.22225,0.22225 0.53975,0.28575 0.3175,0.03175 0.79375,0.03175 0.79375,0 0.79375,0.79375 v 1.016 q 0,0.6985 -0.79375,0.762 z"
       style="font-style:normal;font-variant:normal;font-weight:normal;font-stretch:normal;font-size:31.75000191px;line-height:5;font-family:'Coco Gothic';-inkscape-font-specification:'Coco Gothic';fill:#4a4a4a;fill-opacity:1;stroke-width:0.21166667;stroke-miterlimit:4;stroke-dasharray:none"
       id="path941" />
    <path
       d="m 118.40066,10.626578 q -2.0955,4.953 -4.09575,9.906001 -1.9685,4.92125 -4.03225,9.8425 -0.254,0.53975 -0.85725,0.53975 h -1.27 q -0.73025,0 -0.73025,-0.53975 0,-0.0635 0.0635,-0.3175 l 2.286,-5.588 -5.842,-14.160501 q -0.0952,-0.22225 -0.127,-0.381 0,-0.15875 0,-0.22225 0,-0.5080001 0.66675,-0.5080001 h 1.36525 q 0.60325,0 0.8255,0.5715001 1.04775,2.794 2.2225,5.7785 1.2065,2.95275 2.31775,5.715001 l 4.54025,-11.557001 q 0.254,-0.5080001 0.85725,-0.5080001 h 1.30175 q 0.762,0 0.762,0.6350001 0,0.0635 -0.0318,0.22225 -0.0318,0.127 -0.22225,0.5715 z"
       style="font-style:normal;font-variant:normal;font-weight:normal;font-stretch:normal;font-size:31.75000191px;line-height:5;font-family:'Coco Gothic';-inkscape-font-specification:'Coco Gothic';fill:#4a4a4a;fill-opacity:1;stroke-width:0.21166667;stroke-miterlimit:4;stroke-dasharray:none"
       id="path943" />
    <path
       d="M 121.73293,30.121079 V 9.991578 q 0,-0.7937501 0.85725,-0.7937501 h 0.8255 q 0.85725,0 0.92075,0.7937501 l 0.127,1.397 q 0.73025,-1.04775 1.9685,-1.7780001 1.23825,-0.73025 2.76225,-0.73025 1.524,0 2.8575,0.635 1.3335,0.6350001 2.31775,1.7462501 0.98425,1.0795 1.55575,2.57175 0.5715,1.4605 0.5715,3.14325 0,1.68275 -0.5715,3.175001 -0.5715,1.4605 -1.55575,2.57175 -0.98425,1.0795 -2.31775,1.7145 -1.3335,0.60325 -2.8575,0.60325 -1.61925,0 -2.794,-0.635 -1.17475,-0.66675 -1.905,-1.778 v 7.493 q 0,0.79375 -0.92075,0.79375 h -0.92075 q -0.41275,0 -0.66675,-0.22225 -0.254,-0.22225 -0.254,-0.5715 z m 2.7305,-13.081001 q 0,1.11125 0.34925,2.095501 0.381,0.98425 0.98425,1.7145 0.635,0.73025 1.4605,1.17475 0.85725,0.41275 1.80975,0.41275 0.9525,0 1.778,-0.41275 0.85725,-0.4445 1.4605,-1.17475 0.635,-0.73025 0.98425,-1.7145 0.34925,-0.984251 0.34925,-2.095501 0,-1.11125 -0.34925,-2.0955 -0.34925,-1.016 -0.98425,-1.74625 -0.60325,-0.762 -1.4605,-1.17475 -0.8255,-0.4445 -1.778,-0.4445 -0.9525,0 -1.80975,0.4445 -0.8255,0.41275 -1.4605,1.17475 -0.60325,0.73025 -0.98425,1.7145 -0.34925,0.9525 -0.34925,2.06375 z"
       style="font-style:normal;font-variant:normal;font-weight:normal;font-stretch:normal;font-size:31.75000191px;line-height:5;font-family:'Coco Gothic';-inkscape-font-specification:'Coco Gothic';fill:#4a4a4a;fill-opacity:1;stroke-width:0.21166667;stroke-miterlimit:4;stroke-dasharray:none"
       id="path945" />
  </g>
  <g
     transform="translate(9.0283094,-5.0383645)"
     style="font-style:normal;font-variant:normal;font-weight:normal;font-stretch:normal;font-size:53.33333206px;line-height:1.25;font-family:Florentia;-inkscape-font-specification:Florentia;letter-spacing:0px;word-spacing:0px;fill:#000000;fill-opacity:1;stroke:none"
     id="flowRoot1951" />
  <g
     transform="translate(9.0283094,-5.0383645)"
     style="font-style:normal;font-variant:normal;font-weight:normal;font-stretch:normal;font-size:53.33333206px;line-height:1.25;font-family:Florentia;-inkscape-font-specification:Florentia;letter-spacing:0px;word-spacing:0px;fill:#000000;fill-opacity:1;stroke:none"
     id="flowRoot1959" />
  <g
     transform="translate(9.0283094,-5.0383645)"
     style="font-style:normal;font-variant:normal;font-weight:normal;font-stretch:normal;font-size:53.33333206px;line-height:1.25;font-family:Florentia;-inkscape-font-specification:Florentia;letter-spacing:0px;word-spacing:0px;fill:#000000;fill-opacity:1;stroke:none"
     id="flowRoot1967" />
  <path
     d="m 190.89836,63.89441 a 2.4985445,2.4985445 0 0 0 3.14457,1.53411"
     style="fill:none;fill-opacity:1;fill-rule:evenodd;stroke:#546d9e;stroke-width:1.23100007;stroke-linecap:round;stroke-miterlimit:4;stroke-dasharray:none;stroke-opacity:0.9948982"
     id="path850"
     inkscape:connector-curvature="0"
     class="ZgvLaFyt_0 qkuXKYCD_0" />
  <path
     d="m 196.13403,64.73148 -2.0911,0.69704"
     style="fill:none;fill-opacity:1;fill-rule:evenodd;stroke:#546d9e;stroke-width:1.23100007;stroke-linecap:round;stroke-miterlimit:4;stroke-dasharray:none;stroke-opacity:0.9948982"
     id="path852"
     inkscape:connector-curvature="0"
     class="ZgvLaFyt_1 qkuXKYCD_1" />
  <path
     d="m 196.13403,64.73147 a 2.4985445,2.4985445 0 0 0 1.6758,-2.772826"
     style="fill:none;fill-opacity:1;fill-rule:evenodd;stroke:#546d9e;stroke-width:1.23100007;stroke-linecap:round;stroke-miterlimit:4;stroke-dasharray:none;stroke-opacity:0.9948982"
     id="path854"
     inkscape:connector-curvature="0"
     class="ZgvLaFyt_2 qkuXKYCD_2" />
  <path
     d="M 197.80983,61.958644 A 52.899592,52.899592 0 0 0 182.74976,32.819816"
     style="fill:none;fill-opacity:1;fill-rule:evenodd;stroke:#546d9e;stroke-width:1.23100007;stroke-linecap:round;stroke-miterlimit:4;stroke-dasharray:none;stroke-opacity:0.9948982"
     id="path856"
     inkscape:connector-curvature="0"
     class="ZgvLaFyt_3 qkuXKYCD_3" />
  <path
     d="m 183.05075,31.626394 a 0.71386987,0.71386987 0 0 0 -0.30099,1.193422"
     style="fill:none;fill-opacity:1;fill-rule:evenodd;stroke:#546d9e;stroke-width:1.23100007;stroke-linecap:round;stroke-miterlimit:4;stroke-dasharray:none;stroke-opacity:0.9948982"
     id="path858"
     inkscape:connector-curvature="0"
     class="ZgvLaFyt_4 qkuXKYCD_4" />
  <path
     d="m 183.05075,31.626394 a 3.5693491,3.5693491 0 0 0 2.56775,-3.425933"
     style="fill:none;fill-opacity:1;fill-rule:evenodd;stroke:#546d9e;stroke-width:1.23100007;stroke-linecap:round;stroke-miterlimit:4;stroke-dasharray:none;stroke-opacity:0.9948982"
     id="path860"
     inkscape:connector-curvature="0"
     class="ZgvLaFyt_5 qkuXKYCD_5" />
  <path
     d="m 185.6185,26.414722 v 1.785739"
     style="fill:none;fill-opacity:1;fill-rule:evenodd;stroke:#546d9e;stroke-width:1.23100007;stroke-linecap:round;stroke-miterlimit:4;stroke-dasharray:none;stroke-opacity:0.9948982"
     id="path862"
     inkscape:connector-curvature="0"
     class="ZgvLaFyt_6 qkuXKYCD_6" />
  <path
     d="m 185.6185,26.414727 a 3.5693491,3.5693491 0 0 0 -2.78737,-3.482638"
     style="fill:none;fill-opacity:1;fill-rule:evenodd;stroke:#546d9e;stroke-width:1.23100007;stroke-linecap:round;stroke-miterlimit:4;stroke-dasharray:none;stroke-opacity:0.9948982"
     id="path864"
     inkscape:connector-curvature="0"
     class="ZgvLaFyt_7 qkuXKYCD_7" />
  <path
     d="m 182.28722,22.097091 a 0.71386987,0.71386987 0 0 0 0.54391,0.834997"
     style="fill:none;fill-opacity:1;fill-rule:evenodd;stroke:#546d9e;stroke-width:1.23100007;stroke-linecap:round;stroke-miterlimit:4;stroke-dasharray:none;stroke-opacity:0.9948982"
     id="path866"
     inkscape:connector-curvature="0"
     class="ZgvLaFyt_8 qkuXKYCD_8" />
  <path
     d="M 182.28722,22.097091 A 107.08049,107.08049 0 0 0 184.04638,8.9903185"
     style="fill:none;fill-opacity:1;fill-rule:evenodd;stroke:#546d9e;stroke-width:1.23100007;stroke-linecap:round;stroke-miterlimit:4;stroke-dasharray:none;stroke-opacity:0.9948982"
     id="path868"
     inkscape:connector-curvature="0"
     class="ZgvLaFyt_9 qkuXKYCD_9" />
  <path
     d="m 184.04638,8.9903185 a 2.4985445,2.4985445 0 0 0 -2.20021,-2.66025"
     style="fill:none;fill-opacity:1;fill-rule:evenodd;stroke:#546d9e;stroke-width:1.23100007;stroke-linecap:round;stroke-miterlimit:4;stroke-dasharray:none;stroke-opacity:0.9948982"
     id="path870"
     inkscape:connector-curvature="0"
     class="ZgvLaFyt_10 qkuXKYCD_10" />
  <path
     d="m 180.31503,6.1499305 1.53114,0.180134"
     style="fill:none;fill-opacity:1;fill-rule:evenodd;stroke:#546d9e;stroke-width:1.23100007;stroke-linecap:round;stroke-miterlimit:4;stroke-dasharray:none;stroke-opacity:0.9948982"
     id="path872"
     inkscape:connector-curvature="0"
     class="ZgvLaFyt_11 qkuXKYCD_11" />
  <path
     d="m 180.31503,6.1499305 a 2.4985445,2.4985445 0 0 0 -2.70967,1.851093"
     style="fill:none;fill-opacity:1;fill-rule:evenodd;stroke:#546d9e;stroke-width:1.23100007;stroke-linecap:round;stroke-miterlimit:4;stroke-dasharray:none;stroke-opacity:0.9948982"
     id="path874"
     inkscape:connector-curvature="0"
     class="ZgvLaFyt_12 qkuXKYCD_12" />
  <path
     d="M 173.7803,19.065684 A 75.313425,75.313425 0 0 0 177.60536,8.0010235"
     style="fill:none;fill-opacity:1;fill-rule:evenodd;stroke:#546d9e;stroke-width:1.23100007;stroke-linecap:round;stroke-miterlimit:4;stroke-dasharray:none;stroke-opacity:0.9948982"
     id="path876"
     inkscape:connector-curvature="0"
     class="ZgvLaFyt_13 qkuXKYCD_13" />
  <path
     d="m 172.47125,19.065684 a 0.71386987,0.71386987 0 0 0 1.30905,0"
     style="fill:none;fill-opacity:1;fill-rule:evenodd;stroke:#546d9e;stroke-width:1.23100007;stroke-linecap:round;stroke-miterlimit:4;stroke-dasharray:none;stroke-opacity:0.9948982"
     id="path878"
     inkscape:connector-curvature="0"
     class="ZgvLaFyt_14 qkuXKYCD_14" />
  <path
     d="m 168.64617,8.0010235 a 75.313425,75.313425 0 0 0 3.82508,11.0646605"
     style="fill:none;fill-opacity:1;fill-rule:evenodd;stroke:#546d9e;stroke-width:1.23100007;stroke-linecap:round;stroke-miterlimit:4;stroke-dasharray:none;stroke-opacity:0.9948982"
     id="path880"
     inkscape:connector-curvature="0"
     class="ZgvLaFyt_15 qkuXKYCD_15" />
  <path
     d="m 168.64617,8.0010235 a 2.4985445,2.4985445 0 0 0 -2.70966,-1.851093"
     style="fill:none;fill-opacity:1;fill-rule:evenodd;stroke:#546d9e;stroke-width:1.23100007;stroke-linecap:round;stroke-miterlimit:4;stroke-dasharray:none;stroke-opacity:0.9948982"
     id="path882"
     inkscape:connector-curvature="0"
     class="ZgvLaFyt_16 qkuXKYCD_16" />
  <path
     d="m 165.93651,6.1499305 -1.53114,0.180134"
     style="fill:none;fill-opacity:1;fill-rule:evenodd;stroke:#546d9e;stroke-width:1.23100007;stroke-linecap:round;stroke-miterlimit:4;stroke-dasharray:none;stroke-opacity:0.9948982"
     id="path884"
     inkscape:connector-curvature="0"
     class="ZgvLaFyt_17 qkuXKYCD_17" />
  <path
     d="m 164.40537,6.3300685 a 2.4985445,2.4985445 0 0 0 -2.2002,2.66025"
     style="fill:none;fill-opacity:1;fill-rule:evenodd;stroke:#546d9e;stroke-width:1.23100007;stroke-linecap:round;stroke-miterlimit:4;stroke-dasharray:none;stroke-opacity:0.9948982"
     id="path886"
     inkscape:connector-curvature="0"
     class="ZgvLaFyt_18 qkuXKYCD_18" />
  <path
     d="m 162.20517,8.9903185 a 107.08049,107.08049 0 0 0 1.75916,13.1067725"
     style="fill:none;fill-opacity:1;fill-rule:evenodd;stroke:#546d9e;stroke-width:1.23100007;stroke-linecap:round;stroke-miterlimit:4;stroke-dasharray:none;stroke-opacity:0.9948982"
     id="path888"
     inkscape:connector-curvature="0"
     class="ZgvLaFyt_19 qkuXKYCD_19" />
  <path
     d="m 163.42041,22.932089 a 0.71386987,0.71386987 0 0 0 0.54392,-0.834998"
     style="fill:none;fill-opacity:1;fill-rule:evenodd;stroke:#546d9e;stroke-width:1.23100007;stroke-linecap:round;stroke-miterlimit:4;stroke-dasharray:none;stroke-opacity:0.9948982"
     id="path890"
     inkscape:connector-curvature="0"
     class="ZgvLaFyt_20 qkuXKYCD_20" />
  <path
     d="m 163.42041,22.932089 a 3.5693491,3.5693491 0 0 0 -2.78736,3.482638"
     style="fill:none;fill-opacity:1;fill-rule:evenodd;stroke:#546d9e;stroke-width:1.23100007;stroke-linecap:round;stroke-miterlimit:4;stroke-dasharray:none;stroke-opacity:0.9948982"
     id="path892"
     inkscape:connector-curvature="0"
     class="ZgvLaFyt_21 qkuXKYCD_21" />
  <path
     d="m 160.63305,26.414722 v 1.785739"
     style="fill:none;fill-opacity:1;fill-rule:evenodd;stroke:#546d9e;stroke-width:1.23100007;stroke-linecap:round;stroke-miterlimit:4;stroke-dasharray:none;stroke-opacity:0.9948982"
     id="path894"
     inkscape:connector-curvature="0"
     class="ZgvLaFyt_22 qkuXKYCD_22" />
  <path
     d="m 160.63305,28.200461 a 3.5693491,3.5693491 0 0 0 2.56775,3.425933"
     style="fill:none;fill-opacity:1;fill-rule:evenodd;stroke:#546d9e;stroke-width:1.23100007;stroke-linecap:round;stroke-miterlimit:4;stroke-dasharray:none;stroke-opacity:0.9948982"
     id="path896"
     inkscape:connector-curvature="0"
     class="ZgvLaFyt_23 qkuXKYCD_23" />
  <path
     d="M 163.50179,32.819816 A 0.71386987,0.71386987 0 0 0 163.2008,31.626394"
     style="fill:none;fill-opacity:1;fill-rule:evenodd;stroke:#546d9e;stroke-width:1.23100007;stroke-linecap:round;stroke-miterlimit:4;stroke-dasharray:none;stroke-opacity:0.9948982"
     id="path898"
     inkscape:connector-curvature="0"
     class="ZgvLaFyt_24 qkuXKYCD_24" />
  <path
     d="M 163.50179,32.819816 A 52.899592,52.899592 0 0 0 148.44171,61.958644"
     style="fill:none;fill-opacity:1;fill-rule:evenodd;stroke:#546d9e;stroke-width:1.23100007;stroke-linecap:round;stroke-miterlimit:4;stroke-dasharray:none;stroke-opacity:0.9948982"
     id="path900"
     inkscape:connector-curvature="0"
     class="ZgvLaFyt_25 qkuXKYCD_25" />
  <path
     d="m 148.44171,61.958644 a 2.4985445,2.4985445 0 0 0 1.67579,2.772826"
     style="fill:none;fill-opacity:1;fill-rule:evenodd;stroke:#546d9e;stroke-width:1.23100007;stroke-linecap:round;stroke-miterlimit:4;stroke-dasharray:none;stroke-opacity:0.9948982"
     id="path902"
     inkscape:connector-curvature="0"
     class="ZgvLaFyt_26 qkuXKYCD_26" />
  <path
     d="m 150.11751,64.73148 2.09111,0.69704"
     style="fill:none;fill-opacity:1;fill-rule:evenodd;stroke:#546d9e;stroke-width:1.23100007;stroke-linecap:round;stroke-miterlimit:4;stroke-dasharray:none;stroke-opacity:0.9948982"
     id="path904"
     inkscape:connector-curvature="0"
     class="ZgvLaFyt_27 qkuXKYCD_27" />
  <path
     d="m 152.20862,65.42852 a 2.4985445,2.4985445 0 0 0 3.14455,-1.53411"
     style="fill:none;fill-opacity:1;fill-rule:evenodd;stroke:#546d9e;stroke-width:1.23100007;stroke-linecap:round;stroke-miterlimit:4;stroke-dasharray:none;stroke-opacity:0.9948982"
     id="path906"
     inkscape:connector-curvature="0"
     class="ZgvLaFyt_28 qkuXKYCD_28" />
  <path
     d="M 172.59149,34.687359 A 88.900084,88.900084 0 0 0 155.35317,63.89441"
     style="fill:none;fill-opacity:1;fill-rule:evenodd;stroke:#546d9e;stroke-width:1.23100007;stroke-linecap:round;stroke-miterlimit:4;stroke-dasharray:none;stroke-opacity:0.9948982"
     id="path908"
     inkscape:connector-curvature="0"
     class="ZgvLaFyt_29 qkuXKYCD_29" />
  <path
     d="m 173.66005,34.687359 a 0.71386987,0.71386987 0 0 0 -1.06856,0"
     style="fill:none;fill-opacity:1;fill-rule:evenodd;stroke:#546d9e;stroke-width:1.23100007;stroke-linecap:round;stroke-miterlimit:4;stroke-dasharray:none;stroke-opacity:0.9948982"
     id="path910"
     inkscape:connector-curvature="0"
     class="ZgvLaFyt_30 qkuXKYCD_30" />
  <path
     d="M 190.89836,63.89441 A 88.900084,88.900084 0 0 0 173.66005,34.687359"
     style="fill:none;fill-opacity:1;fill-rule:evenodd;stroke:#546d9e;stroke-width:1.23100007;stroke-linecap:round;stroke-miterlimit:4;stroke-dasharray:none;stroke-opacity:0.9948982"
     id="path912"
     inkscape:connector-curvature="0"
     class="ZgvLaFyt_31 qkuXKYCD_31" />
  <path
     d="m 150.5445,1.1155616 h 45.15943"
     style="fill:none;fill-opacity:1;fill-rule:evenodd;stroke:#546d9e;stroke-width:1.23100007;stroke-linecap:round;stroke-miterlimit:4;stroke-dasharray:none;stroke-opacity:0.9948982"
     id="path916"
     inkscape:connector-curvature="0"
     class="ZgvLaFyt_32 qkuXKYCD_32" />
  <path
     d="M 202.84262,8.2542615 V 63.30207"
     style="fill:none;fill-opacity:1;fill-rule:evenodd;stroke:#546d9e;stroke-width:1.23100007;stroke-linecap:round;stroke-miterlimit:4;stroke-dasharray:none;stroke-opacity:0.9948982"
     id="path918"
     inkscape:connector-curvature="0"
     class="ZgvLaFyt_33 qkuXKYCD_33" />
  <path
     d="M 195.70393,70.44078 H 150.5445"
     style="fill:none;fill-opacity:1;fill-rule:evenodd;stroke:#546d9e;stroke-width:1.23100007;stroke-linecap:round;stroke-miterlimit:4;stroke-dasharray:none;stroke-opacity:0.9948982"
     id="path920"
     inkscape:connector-curvature="0"
     class="ZgvLaFyt_34 qkuXKYCD_34" />
  <path
     d="M 143.40581,63.30207 V 8.2542615"
     style="fill:none;fill-opacity:1;fill-rule:evenodd;stroke:#546d9e;stroke-width:1.23100007;stroke-linecap:round;stroke-miterlimit:4;stroke-dasharray:none;stroke-opacity:0.9948982"
     id="path922"
     inkscape:connector-curvature="0"
     class="ZgvLaFyt_35 qkuXKYCD_35" />
  <path
     d="m 150.5445,1.1155616 a 7.1386987,7.1386987 0 0 0 -7.13869,7.1386999"
     style="fill:none;fill-opacity:1;fill-rule:evenodd;stroke:#546d9e;stroke-width:1.23100007;stroke-linecap:round;stroke-miterlimit:4;stroke-dasharray:none;stroke-opacity:0.9948982"
     id="path924"
     inkscape:connector-curvature="0"
     class="ZgvLaFyt_36 qkuXKYCD_36" />
  <path
     d="M 202.84262,8.2542615 A 7.1386987,7.1386987 0 0 0 195.70393,1.1155616"
     style="fill:none;fill-opacity:1;fill-rule:evenodd;stroke:#546d9e;stroke-width:1.23100007;stroke-linecap:round;stroke-miterlimit:4;stroke-dasharray:none;stroke-opacity:0.9948982"
     id="path926"
     inkscape:connector-curvature="0"
     class="ZgvLaFyt_37 qkuXKYCD_37" />
  <path
     d="m 195.70393,70.44078 a 7.1386987,7.1386987 0 0 0 7.13869,-7.13871"
     style="fill:none;fill-opacity:1;fill-rule:evenodd;stroke:#546d9e;stroke-width:1.23100007;stroke-linecap:round;stroke-miterlimit:4;stroke-dasharray:none;stroke-opacity:0.9948982"
     id="path928"
     inkscape:connector-curvature="0"
     class="ZgvLaFyt_38 qkuXKYCD_38" />
  <path
     d="m 143.40581,63.30207 a 7.1386987,7.1386987 0 0 0 7.13869,7.13871"
     style="fill:none;fill-opacity:1;fill-rule:evenodd;stroke:#546d9e;stroke-width:1.23100007;stroke-linecap:round;stroke-miterlimit:4;stroke-dasharray:none;stroke-opacity:0.9948982"
     id="path930"
     inkscape:connector-curvature="0"
     class="ZgvLaFyt_39 qkuXKYCD_39" />
</svg>
